<svg preserveAspectRatio="none" width="100%" height="100%" overflow="visible" style="display: block;" viewBox="0 0 398 120" fill="none" xmlns="http://www.w3.org/2000/svg">
<g id="design">
<path id="Vector" d="M328.052 78.9197C328.052 74.4896 324.463 70.8998 320.034 70.8998H47.7264C43.2974 70.8998 39.7084 74.4896 39.7084 78.9197C39.7084 83.3497 43.2974 86.9396 47.7264 86.9396H64.7361C69.1651 86.9396 72.7541 90.5294 72.7541 94.9595C72.7541 99.3895 69.1651 102.979 64.7361 102.979H8.01803C3.58902 102.979 0 106.569 0 110.999C0 115.429 3.58902 119.019 8.01803 119.019H181.341C185.77 119.019 189.359 115.429 189.359 110.999C189.359 106.569 185.77 102.979 181.341 102.979H129.281C124.852 102.979 121.263 99.3895 121.263 94.9595C121.263 90.5294 124.852 86.9396 129.281 86.9396H320.034C324.463 86.9396 328.052 83.3497 328.052 78.9197Z" fill="var(--fill-0, #B28247)" fill-opacity="0.08"/>
<path id="Vector_2" d="M398 8.0199C398 3.58986 394.411 0 389.982 0H216.658C212.229 0 208.64 3.58986 208.64 8.0199C208.64 12.4499 212.229 16.0398 216.658 16.0398H277.309C281.738 16.0398 285.327 19.6297 285.327 24.0597C285.327 28.4897 281.738 32.0796 277.309 32.0796H198.064C193.635 32.0796 190.046 35.6694 190.046 40.0995C190.046 44.5295 193.635 48.1194 198.064 48.1194H350.273C354.702 48.1194 358.291 44.5295 358.291 40.0995C358.291 35.6694 354.702 32.0796 350.273 32.0796H341.854C337.425 32.0796 333.836 28.4897 333.836 24.0597C333.836 19.6297 337.425 16.0398 341.854 16.0398H389.982C394.411 16.0398 398 12.4499 398 8.0199Z" fill="var(--fill-0, #B28247)" fill-opacity="0.08"/>
</g>
</svg>
