<svg preserveAspectRatio="none" width="100%" height="100%" overflow="visible" style="display: block;" viewBox="0 0 367 111" fill="none" xmlns="http://www.w3.org/2000/svg">
<g id="design">
<path id="Vector" d="M302.5 72.9509C302.5 68.8559 299.191 65.5376 295.107 65.5376H44.0089C39.9249 65.5376 36.6154 68.8559 36.6154 72.9509C36.6154 77.0459 39.9249 80.3643 44.0089 80.3643H59.6937C63.7778 80.3643 67.0873 83.6826 67.0873 87.7776C67.0873 91.8726 63.7778 95.191 59.6937 95.191H7.39343C3.30939 95.191 -8.41923e-05 98.5093 -8.41923e-05 102.604C-8.41923e-05 106.699 3.30939 110.018 7.39343 110.018H167.217C171.301 110.018 174.61 106.699 174.61 102.604C174.61 98.5093 171.301 95.191 167.217 95.191H119.212C115.127 95.191 111.818 91.8726 111.818 87.7776C111.818 83.6826 115.127 80.3643 119.212 80.3643H295.107C299.191 80.3643 302.5 77.0459 302.5 72.9509Z" fill="var(--fill-0, #B28247)" fill-opacity="0.08"/>
<path id="Vector_2" d="M367 7.41335C367 3.31836 363.69 0 359.606 0H199.783C195.699 0 192.39 3.31836 192.39 7.41335C192.39 11.5083 195.699 14.8267 199.783 14.8267H255.71C259.794 14.8267 263.103 18.1451 263.103 22.2401C263.103 26.335 259.794 29.6534 255.71 29.6534H182.637C178.553 29.6534 175.244 32.9718 175.244 37.0668C175.244 41.1617 178.553 44.4801 182.637 44.4801H322.991C327.075 44.4801 330.384 41.1617 330.384 37.0668C330.384 32.9718 327.075 29.6534 322.991 29.6534H315.228C311.144 29.6534 307.834 26.335 307.834 22.2401C307.834 18.1451 311.144 14.8267 315.228 14.8267H359.606C363.69 14.8267 367 11.5083 367 7.41335Z" fill="var(--fill-0, #B28247)" fill-opacity="0.08"/>
</g>
</svg>
