<svg width="150" height="130" viewBox="0 0 150 130" fill="none" xmlns="http://www.w3.org/2000/svg">
<g filter="url(#filter1_g_588_4250)">
<path d="M41.4732 116.191L13.842 68.3952L11.8794 65L8.40232 58.9966L6.4397 55.586L2.96262 61.5893L1 65L2.96262 68.3952L6.4397 74.3986L8.40232 77.7938L30.5938 116.191H34.5345H41.4732Z" fill="#AC3A09"/>
</g>
<g filter="url(#filter2_g_588_4250)">
<path d="M47.3609 119.586H43.4357H36.497H32.5563L36.0334 125.589L37.996 129H41.9367H48.8754H52.8006H97.1836L99.1617 125.589L102.623 119.586H47.3609Z" fill="#AC3A09"/>
</g>
<g filter="url(#filter3_g_588_4250)">
<path d="M136.158 68.3953L108.527 116.191L106.564 119.586L103.087 125.589L101.124 129H108.063H111.988L113.966 125.589L117.428 119.586L119.391 116.191L141.598 77.7939L139.62 74.3986L136.158 68.3953Z" fill="#AC3A09"/>
</g>
<g filter="url(#filter4_g_588_4250)">
<path d="M147.022 61.5894L143.56 55.586L141.598 52.1908L119.391 13.8093H115.466H108.527L136.158 61.5894L138.121 65.0001L141.598 71.0034L143.56 74.3987L147.022 68.3953L149 65.0001L147.022 61.5894Z" fill="#AC3A09"/>
</g>
<g filter="url(#filter5_g_588_4250)">
<path d="M102.623 10.3986H106.564H113.503H117.428L113.966 4.41066L111.988 1H108.063H101.124H97.1835H52.8005L50.8379 4.41066L47.3608 10.3986H102.623Z" fill="#AC3A09"/>
</g>
<g filter="url(#filter6_g_588_4250)">
<path d="M13.8423 61.5893L41.4735 13.8093L43.4361 10.3986L46.8977 4.41066L48.8758 1H41.9371H37.9964L36.0338 4.41066L32.5567 10.3986L30.5941 13.8093L8.40259 52.1907L10.3652 55.6014L13.8423 61.5893Z" fill="#AC3A09"/>
</g>
<path d="M97 46H95V44C95.3714 44 95.7355 43.8966 96.0515 43.7013C96.3674 43.506 96.6227 43.2266 96.7889 42.8944C96.955 42.5622 97.0253 42.1903 96.9919 41.8204C96.9586 41.4505 96.8229 41.0971 96.6 40.8C96.36 40.48 91.46 34.1 80.6 32.42C80.8986 31.6495 81.0347 30.8256 81 30C81 28.4087 80.3679 26.8826 79.2426 25.7574C78.1174 24.6321 76.5913 24 75 24C73.4087 24 71.8826 24.6321 70.7574 25.7574C69.6321 26.8826 69 28.4087 69 30C68.9969 30.8326 69.1672 31.6568 69.5 32.42C58.54 34.1 53.64 40.42 53.5 40.8C53.2963 41.0879 53.1724 41.4245 53.1408 41.7758C53.1092 42.127 53.171 42.4804 53.32 42.8C53.4644 43.1339 53.6972 43.4221 53.9932 43.6335C54.2892 43.845 54.6373 43.9717 55 44V46H53C51.4087 46 49.8826 46.6321 48.7574 47.7574C47.6321 48.8826 47 50.4087 47 52C47 53.5913 47.6321 55.1174 48.7574 56.2426C49.8826 57.3679 51.4087 58 53 58H55V70C55 71.5913 55.6321 73.1174 56.7574 74.2426C57.8826 75.3679 59.4087 76 61 76H89C90.5913 76 92.1174 75.3679 93.2426 74.2426C94.3679 73.1174 95 71.5913 95 70V58H97C98.5913 58 100.117 57.3679 101.243 56.2426C102.368 55.1174 103 53.5913 103 52C103 50.4087 102.368 48.8826 101.243 47.7574C100.117 46.6321 98.5913 46 97 46ZM73 30C73 29.6044 73.1173 29.2178 73.3371 28.8889C73.5568 28.56 73.8692 28.3036 74.2346 28.1522C74.6001 28.0009 75.0022 27.9613 75.3902 28.0384C75.7781 28.1156 76.1345 28.3061 76.4142 28.5858C76.6939 28.8655 76.8844 29.2219 76.9616 29.6098C77.0387 29.9978 76.9991 30.3999 76.8478 30.7654C76.6964 31.1308 76.44 31.4432 76.1111 31.6629C75.7822 31.8827 75.3956 32 75 32C74.4696 32 73.9609 31.7893 73.5858 31.4142C73.2107 31.0391 73 30.5304 73 30ZM75 36C80.1867 35.8586 85.3 37.25 89.7 40H60.32C64.7152 37.256 69.8203 35.865 75 36ZM53 54C52.4696 54 51.9609 53.7893 51.5858 53.4142C51.2107 53.0391 51 52.5304 51 52C51 51.4696 51.2107 50.9609 51.5858 50.5858C51.9609 50.2107 52.4696 50 53 50H55V54H53ZM91 70C91 70.5304 90.7893 71.0391 90.4142 71.4142C90.0391 71.7893 89.5304 72 89 72H61C60.4696 72 59.9609 71.7893 59.5858 71.4142C59.2107 71.0391 59 70.5304 59 70V44H91V70ZM97 54H95V50H97C97.5304 50 98.0391 50.2107 98.4142 50.5858C98.7893 50.9609 99 51.4696 99 52C99 52.5304 98.7893 53.0391 98.4142 53.4142C98.0391 53.7893 97.5304 54 97 54Z" fill="#AC3A09"/>
<path d="M45.064 91.552C45.2347 91.552 45.368 91.4827 45.464 91.344L45.688 91.008C45.72 90.9653 45.7733 90.8907 45.848 90.784C45.9227 90.6773 45.9813 90.5973 46.024 90.544C46.0773 90.4907 46.1253 90.464 46.168 90.464C46.2533 90.464 46.4507 90.5973 46.76 90.864C47.08 91.1307 47.3093 91.36 47.448 91.552C47.5013 91.6267 47.528 91.6907 47.528 91.744C47.528 91.808 47.496 91.8667 47.432 91.92C47.3467 91.9733 47.2453 92 47.128 92H45.832C45.1813 92.0107 44.488 92.0693 43.752 92.176H43.656C43.5067 92.176 43.4 92.1067 43.336 91.968L43.288 91.856C43.256 91.7707 43.24 91.7067 43.24 91.664C43.24 91.536 43.3413 91.4773 43.544 91.488C43.7893 91.5093 44.136 91.5307 44.584 91.552H45.064ZM54.728 97.344C54.728 97.1093 54.696 96.992 54.632 96.992C54.6107 97.0027 54.5787 97.008 54.536 97.008H50.328C50.1253 97.008 50.008 96.9387 49.976 96.8L49.928 96.64C49.928 97.856 49.88 98.9333 49.784 99.872C49.688 100.8 49.4587 101.739 49.096 102.688C48.7333 103.627 48.184 104.469 47.448 105.216C47.352 105.323 47.272 105.376 47.208 105.376C47.1333 105.376 47.096 105.339 47.096 105.264C47.096 105.221 47.1227 105.136 47.176 105.008C47.688 103.92 48.0133 102.72 48.152 101.408C48.3013 100.085 48.376 98.496 48.376 96.64V93.728C48.376 92.8533 48.3333 92.0053 48.248 91.184V91.12C48.248 90.9493 48.3227 90.864 48.472 90.864C48.504 90.864 48.552 90.8747 48.616 90.896L49.976 91.424C50.136 91.4773 50.2693 91.504 50.376 91.504H54.344C54.5253 91.504 54.664 91.4347 54.76 91.296L54.92 91.072C54.952 91.0293 55 90.9653 55.064 90.88C55.128 90.7947 55.1813 90.7307 55.224 90.688C55.2773 90.6453 55.3253 90.624 55.368 90.624C55.4533 90.624 55.6613 90.752 55.992 91.008C56.3333 91.2533 56.5893 91.472 56.76 91.664C56.8133 91.7387 56.84 91.7973 56.84 91.84C56.84 91.9253 56.792 91.9947 56.696 92.048L56.632 92.08C56.4507 92.1653 56.36 92.2933 56.36 92.464V103.344C56.36 103.771 56.3173 104.112 56.232 104.368C56.1573 104.624 55.992 104.837 55.736 105.008C55.4907 105.179 55.1227 105.301 54.632 105.376H54.568C54.3867 105.376 54.28 105.275 54.248 105.072C54.216 104.667 54.1253 104.373 53.976 104.192C53.816 103.968 53.528 103.797 53.112 103.68C52.9093 103.637 52.808 103.579 52.808 103.504C52.808 103.451 52.888 103.424 53.048 103.424C53.2507 103.424 53.544 103.435 53.928 103.456L54.424 103.488C54.5413 103.488 54.6213 103.461 54.664 103.408C54.7067 103.355 54.728 103.269 54.728 103.152V97.344ZM52.936 94.16C53.0107 94.16 53.0853 94.08 53.16 93.92L53.288 93.696C53.3093 93.6533 53.3467 93.5893 53.4 93.504C53.4533 93.408 53.5013 93.3387 53.544 93.296C53.5867 93.2427 53.6293 93.216 53.672 93.216C53.7467 93.216 53.8907 93.3333 54.104 93.568C54.328 93.792 54.4933 93.9947 54.6 94.176C54.6427 94.2613 54.664 94.3253 54.664 94.368C54.664 94.432 54.632 94.4907 54.568 94.544C54.4933 94.5973 54.4027 94.624 54.296 94.624H53.176C53.0693 94.624 52.984 94.656 52.92 94.72C52.8667 94.7733 52.84 94.8533 52.84 94.96V96.208C52.84 96.3147 52.8507 96.4 52.872 96.464C52.904 96.5173 52.9413 96.544 52.984 96.544C53.0693 96.544 53.16 96.4693 53.256 96.32L53.576 95.792C53.64 95.6853 53.7253 95.632 53.832 95.632C53.9067 95.632 53.9813 95.6693 54.056 95.744L54.312 96.032C54.3973 96.128 54.4773 96.176 54.552 96.176C54.6053 96.176 54.648 96.1493 54.68 96.096C54.712 96.0427 54.728 95.9733 54.728 95.888V92.304C54.728 92.1973 54.696 92.1173 54.632 92.064C54.5787 92 54.4987 91.968 54.392 91.968H50.264C50.1573 91.968 50.072 92 50.008 92.064C49.9547 92.1173 49.928 92.1973 49.928 92.304V96.208C49.928 96.3147 49.9547 96.4 50.008 96.464C50.072 96.5173 50.1573 96.544 50.264 96.544H51.144C51.2507 96.544 51.3307 96.5173 51.384 96.464C51.448 96.4 51.48 96.3147 51.48 96.208V94.96C51.48 94.8533 51.448 94.7733 51.384 94.72C51.3307 94.656 51.2507 94.624 51.144 94.624H51.064C50.904 94.6453 50.7813 94.672 50.696 94.704C50.632 94.736 50.568 94.752 50.504 94.752C50.3973 94.752 50.312 94.688 50.248 94.56L50.2 94.48C50.168 94.416 50.152 94.3573 50.152 94.304C50.152 94.24 50.1787 94.192 50.232 94.16C50.296 94.1173 50.376 94.1013 50.472 94.112C50.5893 94.1333 50.6907 94.1493 50.776 94.16C50.872 94.16 50.9467 94.16 51 94.16H51.144C51.368 94.16 51.48 94.048 51.48 93.824C51.4587 93.248 51.4373 92.848 51.416 92.624V92.592C51.416 92.4 51.5013 92.304 51.672 92.304C51.7253 92.304 51.768 92.3093 51.8 92.32C52.7067 92.576 53.16 92.768 53.16 92.896C53.16 92.928 53.128 92.9707 53.064 93.024C52.9147 93.12 52.84 93.2533 52.84 93.424V93.824C52.84 94.048 52.872 94.16 52.936 94.16ZM44.376 94.016C43.9173 94.0373 43.4907 94.0907 43.096 94.176L43 94.192C42.8507 94.192 42.7387 94.1227 42.664 93.984L42.616 93.888C42.584 93.824 42.568 93.76 42.568 93.696C42.568 93.632 42.5947 93.584 42.648 93.552C42.7013 93.5093 42.776 93.4933 42.872 93.504C43.2347 93.536 43.784 93.5627 44.52 93.584H45.768C45.9387 93.584 46.072 93.5147 46.168 93.376L46.392 93.056C46.424 93.0133 46.4773 92.9387 46.552 92.832C46.6267 92.7253 46.6853 92.6453 46.728 92.592C46.7813 92.5387 46.8293 92.512 46.872 92.512C46.9467 92.512 47.1387 92.6453 47.448 92.912C47.7573 93.168 47.9867 93.392 48.136 93.584C48.1893 93.6587 48.216 93.7227 48.216 93.776C48.216 93.8293 48.184 93.8827 48.12 93.936C48.0667 93.9893 47.976 94.016 47.848 94.016H44.376ZM45.24 95.648C45.4107 95.648 45.544 95.5787 45.64 95.44L45.832 95.152C45.864 95.1093 45.912 95.04 45.976 94.944C46.04 94.8373 46.0933 94.7627 46.136 94.72C46.1893 94.6667 46.2373 94.64 46.28 94.64C46.3653 94.64 46.5573 94.768 46.856 95.024C47.1547 95.2693 47.3733 95.4827 47.512 95.664C47.5653 95.7387 47.592 95.8027 47.592 95.856C47.592 95.92 47.56 95.9787 47.496 96.032C47.4107 96.0853 47.3147 96.112 47.208 96.112H45.816C45.1653 96.1227 44.4613 96.1813 43.704 96.288H43.608C43.4587 96.288 43.352 96.2187 43.288 96.08L43.224 95.952C43.192 95.888 43.176 95.824 43.176 95.76C43.176 95.6213 43.2773 95.5627 43.48 95.584C43.7573 95.6053 44.1627 95.6267 44.696 95.648H45.24ZM45.24 97.744C45.4107 97.744 45.544 97.6693 45.64 97.52L45.832 97.232C45.864 97.1893 45.912 97.12 45.976 97.024C46.04 96.9173 46.0933 96.8427 46.136 96.8C46.1893 96.7467 46.2373 96.72 46.28 96.72C46.3653 96.72 46.5573 96.848 46.856 97.104C47.1547 97.3493 47.3733 97.5627 47.512 97.744C47.5547 97.7973 47.576 97.856 47.576 97.92C47.576 97.9947 47.544 98.0587 47.48 98.112C47.4267 98.1547 47.336 98.176 47.208 98.176H45.816C45.144 98.1867 44.44 98.2453 43.704 98.352H43.624C43.4747 98.352 43.3627 98.2827 43.288 98.144L43.24 98.048C43.208 97.984 43.192 97.9253 43.192 97.872C43.192 97.7227 43.2933 97.6587 43.496 97.68C43.7627 97.7013 44.1627 97.7227 44.696 97.744H45.24ZM52.36 98.112C52.5413 98.112 52.68 98.0427 52.776 97.904L52.888 97.744C52.9307 97.7013 52.9893 97.632 53.064 97.536C53.1493 97.4293 53.224 97.376 53.288 97.376C53.3627 97.376 53.528 97.4773 53.784 97.68C54.0507 97.8827 54.248 98.0693 54.376 98.24C54.4187 98.2933 54.44 98.352 54.44 98.416C54.44 98.4907 54.392 98.56 54.296 98.624C54.2747 98.624 54.2213 98.6667 54.136 98.752C54.0507 98.8373 54.008 98.9227 54.008 99.008V99.872C54.04 100.779 54.0667 101.445 54.088 101.872V101.952C54.088 102.101 54.04 102.208 53.944 102.272C53.816 102.368 53.656 102.453 53.464 102.528C53.272 102.592 53.1013 102.624 52.952 102.624C52.8027 102.624 52.728 102.512 52.728 102.288V102.192C52.728 102.085 52.696 102.005 52.632 101.952C52.5787 101.888 52.4987 101.856 52.392 101.856H52.024C51.9173 101.856 51.832 101.888 51.768 101.952C51.7147 102.005 51.688 102.085 51.688 102.192V102.656C51.688 102.731 51.5707 102.821 51.336 102.928C51.112 103.024 50.8827 103.072 50.648 103.072C50.5627 103.072 50.4933 103.04 50.44 102.976C50.3867 102.912 50.36 102.837 50.36 102.752C50.4027 102.357 50.4347 101.851 50.456 101.232V100.304C50.456 99.3973 50.4187 98.608 50.344 97.936V97.872C50.344 97.712 50.4133 97.632 50.552 97.632C50.616 97.632 50.6693 97.6427 50.712 97.664L51.56 98.032C51.6773 98.0853 51.8107 98.112 51.96 98.112H52.36ZM52.024 98.576C51.9173 98.576 51.832 98.608 51.768 98.672C51.7147 98.7253 51.688 98.8053 51.688 98.912V101.072C51.688 101.179 51.7147 101.264 51.768 101.328C51.832 101.381 51.9173 101.408 52.024 101.408H52.392C52.4987 101.408 52.5787 101.381 52.632 101.328C52.696 101.264 52.728 101.179 52.728 101.072V98.912C52.728 98.8053 52.696 98.7253 52.632 98.672C52.5787 98.608 52.4987 98.576 52.392 98.576H52.024ZM45.48 99.904C45.6507 99.904 45.7893 99.84 45.896 99.712L46.072 99.488C46.104 99.456 46.152 99.3973 46.216 99.312C46.28 99.2267 46.3333 99.168 46.376 99.136C46.4293 99.0933 46.4773 99.072 46.52 99.072C46.6053 99.072 46.808 99.1947 47.128 99.44C47.4587 99.6853 47.7093 99.8987 47.88 100.08C47.9227 100.133 47.944 100.192 47.944 100.256C47.944 100.331 47.896 100.4 47.8 100.464C47.7573 100.485 47.7307 100.496 47.72 100.496C47.5387 100.581 47.448 100.709 47.448 100.88V101.792C47.48 102.699 47.5067 103.381 47.528 103.84V103.92C47.528 104.069 47.4747 104.176 47.368 104.24C47.2187 104.347 47.0267 104.437 46.792 104.512C46.5573 104.597 46.344 104.64 46.152 104.64C46.0133 104.64 45.9173 104.597 45.864 104.512C45.832 104.469 45.816 104.421 45.816 104.368C45.816 104.325 45.8267 104.272 45.848 104.208C45.848 104.165 45.8533 104.128 45.864 104.096C45.864 103.915 45.752 103.824 45.528 103.824H45.032C44.9253 103.824 44.84 103.856 44.776 103.92C44.7227 103.973 44.696 104.053 44.696 104.16V104.176L44.728 104.56V104.656C44.728 104.784 44.6907 104.885 44.616 104.96C44.4987 105.077 44.3227 105.179 44.088 105.264C43.864 105.349 43.6347 105.392 43.4 105.392C43.2933 105.392 43.208 105.36 43.144 105.296C43.0907 105.232 43.064 105.157 43.064 105.072C43.1067 104.613 43.1387 104.037 43.16 103.344V102.304C43.16 101.355 43.1173 100.453 43.032 99.6V99.536C43.032 99.3653 43.1013 99.28 43.24 99.28C43.304 99.28 43.3573 99.2907 43.4 99.312L44.584 99.824C44.7013 99.8773 44.8347 99.904 44.984 99.904H45.48ZM45.032 100.352C44.9253 100.352 44.84 100.384 44.776 100.448C44.7227 100.501 44.696 100.581 44.696 100.688V103.024C44.696 103.131 44.7227 103.216 44.776 103.28C44.84 103.333 44.9253 103.36 45.032 103.36H45.528C45.6347 103.36 45.7147 103.333 45.768 103.28C45.832 103.216 45.864 103.131 45.864 103.024V100.688C45.864 100.581 45.832 100.501 45.768 100.448C45.7147 100.384 45.6347 100.352 45.528 100.352H45.032ZM70.712 101.088C70.8827 101.088 71.016 101.013 71.112 100.864L71.384 100.432C71.4267 100.379 71.4907 100.288 71.576 100.16C71.6613 100.021 71.7307 99.92 71.784 99.856C71.8373 99.792 71.8853 99.76 71.928 99.76C72.0133 99.76 72.2427 99.9307 72.616 100.272C72.9893 100.613 73.2507 100.891 73.4 101.104C73.4533 101.179 73.48 101.243 73.48 101.296C73.48 101.349 73.4533 101.403 73.4 101.456C73.3147 101.509 73.2027 101.536 73.064 101.536H70.168C70.0613 101.536 69.976 101.568 69.912 101.632C69.8587 101.685 69.832 101.765 69.832 101.872V104.048C69.832 104.155 69.8587 104.235 69.912 104.288C69.976 104.352 70.0613 104.384 70.168 104.384H71.176C71.3467 104.384 71.48 104.309 71.576 104.16L71.88 103.664C71.944 103.579 72.0133 103.472 72.088 103.344C72.1733 103.205 72.2427 103.104 72.296 103.04C72.3493 102.976 72.3973 102.944 72.44 102.944C72.5253 102.944 72.7707 103.136 73.176 103.52C73.5813 103.893 73.864 104.192 74.024 104.416C74.0773 104.491 74.104 104.555 74.104 104.608C74.104 104.661 74.0773 104.715 74.024 104.768C73.9387 104.821 73.832 104.848 73.704 104.848H66.104C65.4533 104.859 64.7493 104.917 63.992 105.024H63.896C63.7467 105.024 63.64 104.955 63.576 104.816L63.512 104.688C63.48 104.624 63.464 104.56 63.464 104.496C63.464 104.432 63.4907 104.379 63.544 104.336C63.5973 104.304 63.672 104.293 63.768 104.304C64.1307 104.336 64.68 104.363 65.416 104.384H67.736C67.8427 104.384 67.9227 104.352 67.976 104.288C68.04 104.235 68.072 104.155 68.072 104.048V101.872C68.072 101.765 68.04 101.685 67.976 101.632C67.9227 101.568 67.8427 101.536 67.736 101.536H67C66.4987 101.547 65.9547 101.605 65.368 101.712H65.288C65.128 101.712 65.016 101.637 64.952 101.488L64.904 101.392C64.872 101.328 64.856 101.264 64.856 101.2C64.856 101.136 64.8827 101.088 64.936 101.056C64.9893 101.013 65.064 100.997 65.16 101.008C65.5227 101.04 66.072 101.067 66.808 101.088H67.736C67.8427 101.088 67.9227 101.061 67.976 101.008C68.04 100.944 68.072 100.859 68.072 100.752V98.896C68.072 98.7893 68.04 98.7093 67.976 98.656C67.9227 98.592 67.8427 98.56 67.736 98.56H66.968C66.8613 98.56 66.776 98.592 66.712 98.656C66.6587 98.7093 66.632 98.7893 66.632 98.896V99.008C66.632 99.072 66.5573 99.1573 66.408 99.264C66.2587 99.36 66.072 99.4453 65.848 99.52C65.624 99.584 65.3947 99.616 65.16 99.616C65.032 99.616 64.936 99.584 64.872 99.52C64.808 99.456 64.776 99.3813 64.776 99.296C64.8187 98.88 64.8507 98.3627 64.872 97.744V97.232C64.872 97.1147 64.8667 97.0347 64.856 96.992C64.8453 96.9493 64.8187 96.928 64.776 96.928C64.7333 96.928 64.6907 96.9333 64.648 96.944C64.616 96.9547 64.5733 96.96 64.52 96.96H63.144C63.0373 96.96 62.952 96.992 62.888 97.056C62.8347 97.1093 62.808 97.1893 62.808 97.296V100.512C62.808 100.704 62.8933 100.8 63.064 100.8C63.1173 100.8 63.16 100.795 63.192 100.784L64.584 100.352C64.68 100.32 64.76 100.304 64.824 100.304C64.888 100.304 64.9253 100.315 64.936 100.336V100.352C64.936 100.427 64.872 100.512 64.744 100.608C63.6133 101.472 62.2213 102.421 60.568 103.456C60.44 103.541 60.36 103.616 60.328 103.68L60.28 103.776C60.2373 103.851 60.1787 103.888 60.104 103.888C60.0507 103.888 59.9973 103.867 59.944 103.824C59.9013 103.781 59.8693 103.728 59.848 103.664L59.304 102.272C59.2827 102.187 59.272 102.133 59.272 102.112C59.272 101.973 59.3573 101.888 59.528 101.856C59.6027 101.845 59.848 101.776 60.264 101.648C60.3707 101.627 60.5307 101.584 60.744 101.52C60.936 101.467 61.032 101.339 61.032 101.136V97.296C61.032 97.1893 61 97.1093 60.936 97.056C60.8827 96.992 60.8027 96.96 60.696 96.96H60.52C60.3067 96.9813 60.12 97.0187 59.96 97.072C59.896 97.0933 59.848 97.104 59.816 97.104C59.688 97.104 59.5867 97.0347 59.512 96.896L59.48 96.832C59.448 96.768 59.432 96.7093 59.432 96.656C59.432 96.5067 59.5387 96.4427 59.752 96.464L60.472 96.512H60.696C60.8027 96.512 60.8827 96.4853 60.936 96.432C61 96.368 61.032 96.2827 61.032 96.176V92.88C61.032 92.7733 61 92.6933 60.936 92.64C60.8827 92.576 60.8027 92.544 60.696 92.544H60.504C60.2907 92.5653 60.104 92.6027 59.944 92.656C59.88 92.6773 59.832 92.688 59.8 92.688C59.672 92.688 59.5707 92.6187 59.496 92.48L59.448 92.384C59.416 92.32 59.4 92.256 59.4 92.192C59.4 92.128 59.4267 92.08 59.48 92.048C59.5333 92.0053 59.608 91.9893 59.704 92C60.0667 92.032 60.616 92.0587 61.352 92.08H62.376C62.5467 92.08 62.68 92.0107 62.776 91.872L63.352 91.056C63.416 90.96 63.5013 90.912 63.608 90.912C63.672 90.912 63.7467 90.944 63.832 91.008L64.456 91.568C64.5947 91.6853 64.696 91.744 64.76 91.744C64.8347 91.744 64.872 91.7013 64.872 91.616L64.856 91.264V91.232C64.856 91.1467 64.872 91.0827 64.904 91.04C64.9467 90.9867 64.9947 90.96 65.048 90.96C65.1013 90.96 65.16 90.976 65.224 91.008L66.536 91.584C66.6533 91.6373 66.7867 91.664 66.936 91.664H70.936C71.1067 91.664 71.2453 91.6 71.352 91.472L71.576 91.184C71.608 91.1413 71.6613 91.0773 71.736 90.992C71.8213 90.896 71.8907 90.8267 71.944 90.784C71.9973 90.7307 72.0453 90.704 72.088 90.704C72.1733 90.704 72.4027 90.8533 72.776 91.152C73.1493 91.44 73.4213 91.6853 73.592 91.888C73.6453 91.9413 73.672 92 73.672 92.064C73.672 92.1387 73.6293 92.2027 73.544 92.256L73.384 92.352C73.2027 92.4373 73.112 92.56 73.112 92.72V94.864C73.1333 96.0267 73.1707 97.2 73.224 98.384V98.464C73.224 98.6133 73.1707 98.72 73.064 98.784C72.8933 98.9013 72.6693 99.0133 72.392 99.12C72.1253 99.216 71.8747 99.264 71.64 99.264C71.5547 99.264 71.4853 99.2373 71.432 99.184C71.3787 99.12 71.352 99.0347 71.352 98.928V98.896C71.352 98.7893 71.32 98.7093 71.256 98.656C71.2027 98.592 71.1227 98.56 71.016 98.56H70.168C70.0613 98.56 69.976 98.592 69.912 98.656C69.8587 98.7093 69.832 98.7893 69.832 98.896V100.752C69.832 100.859 69.8587 100.944 69.912 101.008C69.976 101.061 70.0613 101.088 70.168 101.088H70.712ZM67.736 94.88C67.8427 94.88 67.9227 94.8533 67.976 94.8C68.04 94.736 68.072 94.6507 68.072 94.544V92.464C68.072 92.3573 68.04 92.2773 67.976 92.224C67.9227 92.16 67.8427 92.128 67.736 92.128H66.968C66.8613 92.128 66.776 92.16 66.712 92.224C66.6587 92.2773 66.632 92.3573 66.632 92.464V94.544C66.632 94.6507 66.6587 94.736 66.712 94.8C66.776 94.8533 66.8613 94.88 66.968 94.88H67.736ZM71.016 94.88C71.1227 94.88 71.2027 94.8533 71.256 94.8C71.32 94.736 71.352 94.6507 71.352 94.544V92.464C71.352 92.3573 71.32 92.2773 71.256 92.224C71.2027 92.16 71.1227 92.128 71.016 92.128H70.168C70.0613 92.128 69.976 92.16 69.912 92.224C69.8587 92.2773 69.832 92.3573 69.832 92.464V94.544C69.832 94.6507 69.8587 94.736 69.912 94.8C69.976 94.8533 70.0613 94.88 70.168 94.88H71.016ZM64.472 96.16C64.5573 96.256 64.632 96.304 64.696 96.304C64.8133 96.304 64.872 96.208 64.872 96.016V92.88C64.872 92.7733 64.84 92.6933 64.776 92.64C64.7227 92.576 64.6427 92.544 64.536 92.544H63.144C63.0373 92.544 62.952 92.576 62.888 92.64C62.8347 92.6933 62.808 92.7733 62.808 92.88V96.176C62.808 96.4 62.8187 96.512 62.84 96.512H62.856L63.416 95.584C63.4693 95.488 63.5173 95.4133 63.56 95.36C63.6133 95.3067 63.6507 95.2907 63.672 95.312C63.992 95.632 64.2587 95.9147 64.472 96.16ZM66.968 95.344C66.8613 95.344 66.776 95.376 66.712 95.44C66.6587 95.4933 66.632 95.5733 66.632 95.68V97.76C66.632 97.8667 66.6587 97.952 66.712 98.016C66.776 98.0693 66.8613 98.096 66.968 98.096H67.736C67.8427 98.096 67.9227 98.0693 67.976 98.016C68.04 97.952 68.072 97.8667 68.072 97.76V95.68C68.072 95.5733 68.04 95.4933 67.976 95.44C67.9227 95.376 67.8427 95.344 67.736 95.344H66.968ZM70.168 95.344C70.0613 95.344 69.976 95.376 69.912 95.44C69.8587 95.4933 69.832 95.5733 69.832 95.68V97.76C69.832 97.8667 69.8587 97.952 69.912 98.016C69.976 98.0693 70.0613 98.096 70.168 98.096H71.016C71.1227 98.096 71.2027 98.0693 71.256 98.016C71.32 97.952 71.352 97.8667 71.352 97.76V95.68C71.352 95.5733 71.32 95.4933 71.256 95.44C71.2027 95.376 71.1227 95.344 71.016 95.344H70.168ZM83.608 93.696C83.1813 93.984 82.6107 94.2667 81.896 94.544C81.8 94.5867 81.7253 94.6347 81.672 94.688C81.6293 94.7307 81.5973 94.7947 81.576 94.88C81.2667 95.7227 80.8453 96.832 80.312 98.208C79.7893 99.584 79.464 100.421 79.336 100.72C79.2187 100.976 79.0587 101.173 78.856 101.312C78.664 101.44 78.472 101.504 78.28 101.504C78.024 101.504 77.848 101.381 77.752 101.136C77.6667 100.891 77.624 100.544 77.624 100.096C77.624 99.904 77.6507 99.7547 77.704 99.648C77.7573 99.5307 77.864 99.376 78.024 99.184L78.376 98.752C79.0907 97.76 79.688 96.6293 80.168 95.36C80.2107 95.2533 80.2427 95.168 80.264 95.104C80.2853 95.04 80.2907 94.9973 80.28 94.976H80.232C79.6347 94.976 79.1707 94.8053 78.84 94.464C78.52 94.112 78.2853 93.76 78.136 93.408C78.0827 93.28 78.056 93.1893 78.056 93.136C78.056 93.0933 78.072 93.072 78.104 93.072C78.1467 93.072 78.2213 93.12 78.328 93.216C78.488 93.3653 78.7013 93.4827 78.968 93.568C79.2453 93.6533 79.528 93.696 79.816 93.696C79.8587 93.696 80.0507 93.6747 80.392 93.632C80.5947 93.6 80.7013 93.488 80.712 93.296C80.7333 93.1253 80.744 93.0027 80.744 92.928C80.744 92.4267 80.616 92.0853 80.36 91.904C80.2533 91.8187 80.136 91.7387 80.008 91.664C79.88 91.5893 79.816 91.536 79.816 91.504C79.816 91.4507 79.8693 91.4027 79.976 91.36C80.0933 91.3173 80.2427 91.296 80.424 91.296C80.68 91.296 80.936 91.3387 81.192 91.424C81.5867 91.552 81.8533 91.7333 81.992 91.968C82.0453 92.064 82.0987 92.1333 82.152 92.176C82.2053 92.208 82.28 92.224 82.376 92.224H82.456L83.064 92.16C83.2453 92.128 83.3733 92.112 83.448 92.112C83.6507 92.112 83.816 92.16 83.944 92.256C84.1253 92.3733 84.216 92.544 84.216 92.768C84.216 92.9387 84.152 93.1147 84.024 93.296C83.896 93.4667 83.7573 93.6 83.608 93.696ZM82.232 92.528C82.1787 92.528 82.152 92.56 82.152 92.624V92.72V92.848C82.152 93.0613 82.1947 93.1467 82.28 93.104C82.4933 92.9867 82.6 92.88 82.6 92.784C82.6 92.7093 82.52 92.64 82.36 92.576L82.264 92.528H82.232ZM86.264 95.776C85.912 95.776 85.64 95.9307 85.448 96.24C85.2667 96.5493 85.176 96.9813 85.176 97.536C85.176 97.9093 85.2027 98.304 85.256 98.72C85.3093 99.136 85.3893 99.6373 85.496 100.224L85.56 100.576C85.592 100.757 85.6987 100.869 85.88 100.912C86.68 101.115 87.3093 101.371 87.768 101.68C87.992 101.829 88.1627 102 88.28 102.192C88.3973 102.373 88.456 102.555 88.456 102.736C88.456 102.939 88.392 103.12 88.264 103.28C88.136 103.429 87.976 103.504 87.784 103.504C87.6027 103.504 87.4107 103.451 87.208 103.344C87.0053 103.237 86.7387 103.072 86.408 102.848L86.152 102.688C86.0667 102.645 86.008 102.624 85.976 102.624C85.848 102.624 85.768 102.715 85.736 102.896C85.6293 103.44 85.336 103.867 84.856 104.176C84.3867 104.496 83.8373 104.656 83.208 104.656C82.8027 104.656 82.408 104.581 82.024 104.432C81.6507 104.293 81.3413 104.08 81.096 103.792C80.8613 103.504 80.744 103.163 80.744 102.768C80.744 102.085 81.0587 101.563 81.688 101.2C82.328 100.827 83.0907 100.64 83.976 100.64C84.104 100.64 84.168 100.528 84.168 100.304C84.168 99.3973 84.184 98.736 84.216 98.32C84.2587 97.712 84.3653 97.216 84.536 96.832C84.7067 96.4373 84.968 96.112 85.32 95.856C85.6827 95.5893 86.1733 95.3493 86.792 95.136C86.952 95.0827 87.032 94.9973 87.032 94.88C87.032 94.6347 86.7493 94.2933 86.184 93.856C86.1627 93.8347 86.1307 93.8027 86.088 93.76C86.0453 93.7173 86.024 93.6853 86.024 93.664C86.024 93.6107 86.088 93.584 86.216 93.584C86.3547 93.584 86.504 93.6107 86.664 93.664C87.2613 93.7707 87.8053 94.0107 88.296 94.384C88.7973 94.7467 89.048 95.1627 89.048 95.632C89.048 95.9093 88.9627 96.1387 88.792 96.32C88.632 96.4907 88.4347 96.576 88.2 96.576C88.0293 96.576 87.8747 96.544 87.736 96.48C87.608 96.416 87.4267 96.2987 87.192 96.128C86.8613 95.8933 86.552 95.776 86.264 95.776ZM82.808 103.52C83.288 103.52 83.6187 103.408 83.8 103.184C83.992 102.96 84.104 102.64 84.136 102.224V102.176C84.136 101.995 84.04 101.888 83.848 101.856C83.5067 101.803 83.2293 101.776 83.016 101.776C82.5893 101.776 82.216 101.84 81.896 101.968C81.5867 102.096 81.432 102.304 81.432 102.592C81.432 102.88 81.5707 103.109 81.848 103.28C82.1253 103.44 82.4453 103.52 82.808 103.52ZM100.04 104.384C98.7387 104.384 97.7893 104 97.192 103.232C96.6053 102.453 96.312 101.307 96.312 99.792C96.312 98.992 96.344 98.24 96.408 97.536C96.4827 96.832 96.5253 96.4267 96.536 96.32C96.5467 96.2453 96.5733 95.9733 96.616 95.504C96.6693 95.0347 96.696 94.608 96.696 94.224C96.696 93.7547 96.6053 93.3493 96.424 93.008C96.2427 92.656 96.0133 92.4 95.736 92.24C95.6293 92.1867 95.576 92.1333 95.576 92.08C95.576 92.0053 95.6987 91.9467 95.944 91.904C96.2 91.8507 96.44 91.824 96.664 91.824C97.368 91.824 97.864 91.9893 98.152 92.32C98.4507 92.64 98.6 93.0933 98.6 93.68C98.6 94.0107 98.5573 94.3947 98.472 94.832C98.3973 95.2693 98.2853 95.7973 98.136 96.416C97.8587 97.6 97.72 98.6827 97.72 99.664C97.72 100.795 97.9387 101.6 98.376 102.08C98.824 102.549 99.5493 102.784 100.552 102.784C102.216 102.784 103.971 101.931 105.816 100.224C105.955 100.107 106.056 100.048 106.12 100.048C106.141 100.048 106.152 100.064 106.152 100.096C106.152 100.171 106.099 100.283 105.992 100.432C104.179 103.067 102.195 104.384 100.04 104.384Z" fill="#AC3A09"/>
<g filter="url(#filter7_g_588_4250)">
<path d="M91.2203 79.512L94.9188 83.2105L101.431 89.7228L105.115 93.4067L106.1 85.9237L106.656 81.6555L102.972 77.9715L96.4593 71.4593L92.7608 67.7608L51.1054 26.1054L46.8517 26.6751L39.3542 27.6458L91.2203 79.512Z" fill="#AC3A09"/>
</g>
<defs>
<filter id="filter1_g_588_4250" x="0" y="54.586" width="42.4733" height="62.6048" filterUnits="userSpaceOnUse" color-interpolation-filters="sRGB">
<feFlood flood-opacity="0" result="BackgroundImageFix"/>
<feBlend mode="normal" in="SourceGraphic" in2="BackgroundImageFix" result="shape"/>
<feTurbulence type="fractalNoise" baseFrequency="1 1" numOctaves="3" seed="363" />
<feDisplacementMap in="shape" scale="2" xChannelSelector="R" yChannelSelector="G" result="displacedImage" width="100%" height="100%" />
<feMerge result="effect1_texture_588_4250">
<feMergeNode in="displacedImage"/>
</feMerge>
</filter>
<filter id="filter2_g_588_4250" x="31.5563" y="118.586" width="72.067" height="11.414" filterUnits="userSpaceOnUse" color-interpolation-filters="sRGB">
<feFlood flood-opacity="0" result="BackgroundImageFix"/>
<feBlend mode="normal" in="SourceGraphic" in2="BackgroundImageFix" result="shape"/>
<feTurbulence type="fractalNoise" baseFrequency="1 1" numOctaves="3" seed="363" />
<feDisplacementMap in="shape" scale="2" xChannelSelector="R" yChannelSelector="G" result="displacedImage" width="100%" height="100%" />
<feMerge result="effect1_texture_588_4250">
<feMergeNode in="displacedImage"/>
</feMerge>
</filter>
<filter id="filter3_g_588_4250" x="100.124" y="67.3953" width="42.4733" height="62.6048" filterUnits="userSpaceOnUse" color-interpolation-filters="sRGB">
<feFlood flood-opacity="0" result="BackgroundImageFix"/>
<feBlend mode="normal" in="SourceGraphic" in2="BackgroundImageFix" result="shape"/>
<feTurbulence type="fractalNoise" baseFrequency="1 1" numOctaves="3" seed="363" />
<feDisplacementMap in="shape" scale="2" xChannelSelector="R" yChannelSelector="G" result="displacedImage" width="100%" height="100%" />
<feMerge result="effect1_texture_588_4250">
<feMergeNode in="displacedImage"/>
</feMerge>
</filter>
<filter id="filter4_g_588_4250" x="107.527" y="12.8093" width="42.4733" height="62.5894" filterUnits="userSpaceOnUse" color-interpolation-filters="sRGB">
<feFlood flood-opacity="0" result="BackgroundImageFix"/>
<feBlend mode="normal" in="SourceGraphic" in2="BackgroundImageFix" result="shape"/>
<feTurbulence type="fractalNoise" baseFrequency="1 1" numOctaves="3" seed="363" />
<feDisplacementMap in="shape" scale="2" xChannelSelector="R" yChannelSelector="G" result="displacedImage" width="100%" height="100%" />
<feMerge result="effect1_texture_588_4250">
<feMergeNode in="displacedImage"/>
</feMerge>
</filter>
<filter id="filter5_g_588_4250" x="46.3608" y="0" width="72.067" height="11.3986" filterUnits="userSpaceOnUse" color-interpolation-filters="sRGB">
<feFlood flood-opacity="0" result="BackgroundImageFix"/>
<feBlend mode="normal" in="SourceGraphic" in2="BackgroundImageFix" result="shape"/>
<feTurbulence type="fractalNoise" baseFrequency="1 1" numOctaves="3" seed="363" />
<feDisplacementMap in="shape" scale="2" xChannelSelector="R" yChannelSelector="G" result="displacedImage" width="100%" height="100%" />
<feMerge result="effect1_texture_588_4250">
<feMergeNode in="displacedImage"/>
</feMerge>
</filter>
<filter id="filter6_g_588_4250" x="7.40259" y="0" width="42.4733" height="62.5893" filterUnits="userSpaceOnUse" color-interpolation-filters="sRGB">
<feFlood flood-opacity="0" result="BackgroundImageFix"/>
<feBlend mode="normal" in="SourceGraphic" in2="BackgroundImageFix" result="shape"/>
<feTurbulence type="fractalNoise" baseFrequency="1 1" numOctaves="3" seed="363" />
<feDisplacementMap in="shape" scale="2" xChannelSelector="R" yChannelSelector="G" result="displacedImage" width="100%" height="100%" />
<feMerge result="effect1_texture_588_4250">
<feMergeNode in="displacedImage"/>
</feMerge>
</filter>
<filter id="filter7_g_588_4250" x="38.3541" y="25.1054" width="69.3014" height="69.3013" filterUnits="userSpaceOnUse" color-interpolation-filters="sRGB">
<feFlood flood-opacity="0" result="BackgroundImageFix"/>
<feBlend mode="normal" in="SourceGraphic" in2="BackgroundImageFix" result="shape"/>
<feTurbulence type="fractalNoise" baseFrequency="1 1" numOctaves="3" seed="363" />
<feDisplacementMap in="shape" scale="2" xChannelSelector="R" yChannelSelector="G" result="displacedImage" width="100%" height="100%" />
<feMerge result="effect1_texture_588_4250">
<feMergeNode in="displacedImage"/>
</feMerge>
</filter>
</defs>
</svg>
