<svg width="150" height="130" viewBox="0 0 150 130" fill="none" xmlns="http://www.w3.org/2000/svg">
<g filter="url(#filter1_g_588_4264)">
<path d="M41.4732 116.191L13.842 68.3952L11.8794 65L8.40232 58.9966L6.4397 55.586L2.96262 61.5893L1 65L2.96262 68.3952L6.4397 74.3986L8.40232 77.7938L30.5938 116.191H34.5345H41.4732Z" fill="#875408"/>
</g>
<g filter="url(#filter2_g_588_4264)">
<path d="M47.3609 119.586H43.4357H36.497H32.5563L36.0334 125.589L37.996 129H41.9367H48.8754H52.8006H97.1836L99.1617 125.589L102.623 119.586H47.3609Z" fill="#875408"/>
</g>
<g filter="url(#filter3_g_588_4264)">
<path d="M136.158 68.3953L108.527 116.191L106.564 119.586L103.087 125.589L101.124 129H108.063H111.988L113.966 125.589L117.428 119.586L119.391 116.191L141.598 77.7939L139.62 74.3986L136.158 68.3953Z" fill="#875408"/>
</g>
<g filter="url(#filter4_g_588_4264)">
<path d="M147.022 61.5894L143.56 55.586L141.598 52.1908L119.391 13.8093H115.466H108.527L136.158 61.5894L138.121 65.0001L141.598 71.0034L143.56 74.3987L147.022 68.3953L149 65.0001L147.022 61.5894Z" fill="#875408"/>
</g>
<g filter="url(#filter5_g_588_4264)">
<path d="M102.623 10.3986H106.564H113.503H117.428L113.966 4.41066L111.988 1H108.063H101.124H97.1835H52.8005L50.8379 4.41066L47.3608 10.3986H102.623Z" fill="#875408"/>
</g>
<g filter="url(#filter6_g_588_4264)">
<path d="M13.8423 61.5893L41.4735 13.8093L43.4361 10.3986L46.8977 4.41066L48.8758 1H41.9371H37.9964L36.0338 4.41066L32.5567 10.3986L30.5941 13.8093L8.40259 52.1907L10.3652 55.6014L13.8423 61.5893Z" fill="#875408"/>
</g>
<path d="M97 34C97 27.38 92.52 22 87 22C81.48 22 77 27.38 77 34C77 39.8 80.44 44.64 85 45.76V50.34C83.8297 50.7538 82.8165 51.5203 82.1001 52.534C81.3837 53.5477 80.9993 54.7587 81 56V72C81 73.5913 81.6321 75.1174 82.7574 76.2426C83.8826 77.3679 85.4087 78 87 78C88.5913 78 90.1174 77.3679 91.2426 76.2426C92.3679 75.1174 93 73.5913 93 72V56C93.0007 54.7587 92.6163 53.5477 91.8999 52.534C91.1835 51.5203 90.1703 50.7538 89 50.34V45.76C93.56 44.64 97 39.8 97 34ZM81 34C81 29.58 83.7 26 87 26C90.3 26 93 29.58 93 34C93 38.42 90.3 42 87 42C83.7 42 81 38.42 81 34ZM89 72C89 72.5304 88.7893 73.0391 88.4142 73.4142C88.0391 73.7893 87.5304 74 87 74C86.4696 74 85.9609 73.7893 85.5858 73.4142C85.2107 73.0391 85 72.5304 85 72V56C85 55.4696 85.2107 54.9609 85.5858 54.5858C85.9609 54.2107 86.4696 54 87 54C87.5304 54 88.0391 54.2107 88.4142 54.5858C88.7893 54.9609 89 55.4696 89 56V72ZM71 22C70.4696 22 69.9609 22.2107 69.5858 22.5858C69.2107 22.9609 69 23.4696 69 24V34H65V24C65 23.4696 64.7893 22.9609 64.4142 22.5858C64.0391 22.2107 63.5304 22 63 22C62.4696 22 61.9609 22.2107 61.5858 22.5858C61.2107 22.9609 61 23.4696 61 24V34H57V24C57 23.4696 56.7893 22.9609 56.4142 22.5858C56.0391 22.2107 55.5304 22 55 22C54.4696 22 53.9609 22.2107 53.5858 22.5858C53.2107 22.9609 53 23.4696 53 24V40C53 41.5913 53.6321 43.1174 54.7574 44.2426C55.8826 45.3679 57.4087 46 59 46H61V50.34C59.8297 50.7538 58.8165 51.5203 58.1001 52.534C57.3837 53.5477 56.9993 54.7587 57 56V72C57 73.5913 57.6321 75.1174 58.7574 76.2426C59.8826 77.3679 61.4087 78 63 78C64.5913 78 66.1174 77.3679 67.2426 76.2426C68.3679 75.1174 69 73.5913 69 72V56C69.0007 54.7587 68.6163 53.5477 67.8999 52.534C67.1835 51.5203 66.1703 50.7538 65 50.34V46H67C68.5913 46 70.1174 45.3679 71.2426 44.2426C72.3679 43.1174 73 41.5913 73 40V24C73 23.4696 72.7893 22.9609 72.4142 22.5858C72.0391 22.2107 71.5304 22 71 22ZM65 72C65 72.5304 64.7893 73.0391 64.4142 73.4142C64.0391 73.7893 63.5304 74 63 74C62.4696 74 61.9609 73.7893 61.5858 73.4142C61.2107 73.0391 61 72.5304 61 72V56C61 55.4696 61.2107 54.9609 61.5858 54.5858C61.9609 54.2107 62.4696 54 63 54C63.5304 54 64.0391 54.2107 64.4142 54.5858C64.7893 54.9609 65 55.4696 65 56V72ZM69 40C69 40.5304 68.7893 41.0391 68.4142 41.4142C68.0391 41.7893 67.5304 42 67 42H59C58.4696 42 57.9609 41.7893 57.5858 41.4142C57.2107 41.0391 57 40.5304 57 40V38H69V40Z" fill="#875408"/>
<path d="M62.008 91.632C62.1787 91.632 62.3173 91.568 62.424 91.44L62.616 91.184C62.6587 91.1307 62.712 91.0613 62.776 90.976C62.8507 90.8907 62.9093 90.8267 62.952 90.784C63.0053 90.7413 63.0533 90.72 63.096 90.72C63.1813 90.72 63.4053 90.8587 63.768 91.136C64.1307 91.4133 64.3973 91.648 64.568 91.84C64.6213 91.8933 64.648 91.9467 64.648 92C64.648 92.0853 64.6053 92.1547 64.52 92.208C64.456 92.2507 64.4027 92.2773 64.36 92.288C64.1787 92.3733 64.088 92.5013 64.088 92.672V93.472C64.12 94.2827 64.1467 94.896 64.168 95.312V95.392C64.168 95.5413 64.1093 95.6427 63.992 95.696C63.832 95.792 63.624 95.8773 63.368 95.952C63.1227 96.016 62.904 96.048 62.712 96.048C62.6267 96.048 62.5573 96.0213 62.504 95.968C62.4507 95.904 62.424 95.8187 62.424 95.712V95.584C62.424 95.4773 62.392 95.3973 62.328 95.344C62.2747 95.28 62.1947 95.248 62.088 95.248H60.888C60.7813 95.248 60.696 95.28 60.632 95.344C60.5787 95.3973 60.552 95.4773 60.552 95.584V95.632C60.552 95.6853 60.4773 95.7547 60.328 95.84C60.1893 95.9253 60.0133 96 59.8 96.064C59.5867 96.128 59.3733 96.16 59.16 96.16C59.0533 96.16 58.968 96.128 58.904 96.064C58.8507 96 58.824 95.9253 58.824 95.84C58.8667 95.4667 58.8987 94.992 58.92 94.416V93.536C58.92 92.7147 58.888 91.968 58.824 91.296V91.232C58.824 91.0613 58.8933 90.976 59.032 90.976C59.096 90.976 59.1493 90.9867 59.192 91.008L60.44 91.552C60.5573 91.6053 60.6907 91.632 60.84 91.632H62.008ZM62.488 97.312C62.6587 97.312 62.792 97.2427 62.888 97.104L63.176 96.704C63.24 96.6293 63.304 96.544 63.368 96.448C63.4427 96.352 63.512 96.2667 63.576 96.192C63.64 96.1173 63.6933 96.08 63.736 96.08C63.8213 96.08 64.0613 96.24 64.456 96.56C64.8507 96.88 65.128 97.1413 65.288 97.344C65.352 97.408 65.384 97.472 65.384 97.536C65.384 97.5893 65.352 97.6427 65.288 97.696C65.2027 97.7493 65.0907 97.776 64.952 97.776H60.744C60.648 97.776 60.5733 97.7973 60.52 97.84C60.4667 97.8827 60.44 97.9307 60.44 97.984C60.44 98.0587 60.4933 98.128 60.6 98.192C61.6987 98.8 63.2293 99.2 65.192 99.392C65.416 99.4027 65.528 99.44 65.528 99.504C65.5173 99.5467 65.4853 99.5947 65.432 99.648C65.3893 99.6907 65.3573 99.728 65.336 99.76C65.08 100.027 64.9147 100.448 64.84 101.024C64.808 101.216 64.7227 101.312 64.584 101.312L64.456 101.28L64.216 101.2C64.088 101.157 64.008 101.136 63.976 101.136L63.928 101.152V102.4C63.96 103.349 63.9867 104.075 64.008 104.576V104.64C64.008 104.8 63.9493 104.907 63.832 104.96C63.6613 105.056 63.448 105.136 63.192 105.2C62.9467 105.275 62.728 105.312 62.536 105.312C62.3867 105.312 62.2853 105.269 62.232 105.184C62.2 105.141 62.184 105.088 62.184 105.024C62.184 104.992 62.1947 104.912 62.216 104.784V104.768C62.2373 104.747 62.248 104.619 62.248 104.384C62.248 104.331 62.216 104.283 62.152 104.24C62.0987 104.208 62.0187 104.192 61.912 104.192H60.76C60.6533 104.192 60.568 104.219 60.504 104.272C60.4507 104.336 60.424 104.421 60.424 104.528V104.816C60.424 104.869 60.3493 104.939 60.2 105.024C60.0613 105.109 59.8853 105.184 59.672 105.248C59.4587 105.312 59.2453 105.344 59.032 105.344C58.9253 105.344 58.84 105.312 58.776 105.248C58.7227 105.184 58.696 105.109 58.696 105.024C58.7387 104.619 58.7707 104.096 58.792 103.456V102.512C58.792 101.563 58.7547 100.747 58.68 100.064V100C58.68 99.8293 58.7493 99.744 58.888 99.744C58.952 99.744 59.0053 99.7547 59.048 99.776L60.296 100.304C60.4133 100.357 60.5467 100.384 60.696 100.384H61.864C62.024 100.384 62.12 100.368 62.152 100.336L62.184 100.304C61.1813 99.728 60.3387 98.9547 59.656 97.984C59.56 97.8453 59.4267 97.776 59.256 97.776H57.336C57.1547 97.776 57.016 97.84 56.92 97.968C56.248 98.704 55.4213 99.3653 54.44 99.952C54.3227 100.027 54.2373 100.096 54.184 100.16C54.1413 100.224 54.1467 100.267 54.2 100.288C54.3173 100.352 54.456 100.384 54.616 100.384H55.64C55.8107 100.384 55.9493 100.32 56.056 100.192L56.232 99.968C56.2853 99.9147 56.36 99.8293 56.456 99.712C56.552 99.5947 56.632 99.536 56.696 99.536C56.7813 99.536 56.9947 99.664 57.336 99.92C57.688 100.165 57.9493 100.384 58.12 100.576C58.1733 100.629 58.2 100.688 58.2 100.752C58.2 100.827 58.1573 100.891 58.072 100.944L57.944 101.008C57.7627 101.093 57.672 101.221 57.672 101.392V102.32C57.704 103.269 57.7307 103.968 57.752 104.416V104.496C57.752 104.645 57.704 104.752 57.608 104.816C57.4587 104.923 57.256 105.019 57 105.104C56.744 105.189 56.5147 105.232 56.312 105.232C56.184 105.232 56.0933 105.189 56.04 105.104C56.008 105.061 55.992 105.008 55.992 104.944C55.992 104.912 56.0027 104.843 56.024 104.736L56.056 104.544V104.528C56.056 104.421 56.024 104.336 55.96 104.272C55.9067 104.219 55.8267 104.192 55.72 104.192H54.664C54.5573 104.192 54.472 104.219 54.408 104.272C54.3547 104.336 54.328 104.421 54.328 104.528V104.896C54.328 104.96 54.2587 105.035 54.12 105.12C53.9813 105.205 53.8053 105.28 53.592 105.344C53.3787 105.408 53.1653 105.44 52.952 105.44C52.8347 105.44 52.744 105.408 52.68 105.344C52.616 105.28 52.584 105.205 52.584 105.12C52.648 104.213 52.6907 103.296 52.712 102.368V101.232C52.712 101.147 52.6907 101.077 52.648 101.024C52.6053 100.971 52.5467 100.944 52.472 100.944L52.328 100.976C51.9333 101.125 51.5867 101.248 51.288 101.344L51.08 101.376C51.016 101.376 50.9733 101.36 50.952 101.328V101.312C50.952 101.248 51.0373 101.168 51.208 101.072C52.6267 100.347 53.8213 99.3867 54.792 98.192C54.8453 98.128 54.872 98.0587 54.872 97.984C54.872 97.92 54.8453 97.872 54.792 97.84C54.7387 97.7973 54.6693 97.776 54.584 97.776H53.688C53.0373 97.7867 52.3333 97.8453 51.576 97.952H51.48C51.3307 97.952 51.224 97.8827 51.16 97.744L51.096 97.616C51.064 97.552 51.048 97.4933 51.048 97.44C51.048 97.3653 51.0747 97.312 51.128 97.28C51.1813 97.2373 51.256 97.2213 51.352 97.232C51.736 97.264 52.2907 97.2907 53.016 97.312H55.176C55.3573 97.312 55.4907 97.2373 55.576 97.088C55.7467 96.8 55.9067 96.512 56.056 96.224C56.0773 96.16 56.088 96.1227 56.088 96.112C56.088 96.0587 56.072 96.0107 56.04 95.968C56.008 95.9253 55.9867 95.8933 55.976 95.872C55.944 95.808 55.928 95.7333 55.928 95.648V95.584C55.928 95.4773 55.896 95.3973 55.832 95.344C55.7787 95.28 55.6987 95.248 55.592 95.248H54.504C54.3973 95.248 54.312 95.28 54.248 95.344C54.1947 95.3973 54.168 95.4773 54.168 95.584V95.872C54.168 95.9253 54.0933 95.9947 53.944 96.08C53.8053 96.1547 53.6293 96.224 53.416 96.288C53.2027 96.352 52.9893 96.384 52.776 96.384C52.6693 96.384 52.5893 96.352 52.536 96.288C52.4827 96.224 52.456 96.1493 52.456 96.064C52.4987 95.6693 52.5307 95.168 52.552 94.56V93.648C52.552 92.752 52.5147 91.9733 52.44 91.312V91.248C52.44 91.0773 52.5093 90.992 52.648 90.992C52.712 90.992 52.7653 91.0027 52.808 91.024L54.024 91.552C54.1413 91.6053 54.2747 91.632 54.424 91.632H55.512C55.6827 91.632 55.8213 91.568 55.928 91.44L56.12 91.2C56.1733 91.1467 56.248 91.0613 56.344 90.944C56.44 90.8267 56.52 90.768 56.584 90.768C56.6693 90.768 56.8827 90.896 57.224 91.152C57.5653 91.3973 57.8213 91.616 57.992 91.808C58.0453 91.8827 58.072 91.9413 58.072 91.984C58.072 92.0693 58.024 92.1387 57.928 92.192L57.832 92.24C57.736 92.2933 57.6667 92.3467 57.624 92.4C57.5813 92.4533 57.56 92.528 57.56 92.624V95.488V95.504C57.496 95.632 57.464 95.7173 57.464 95.76C57.464 95.8453 57.5227 95.9093 57.64 95.952C58.152 96.1227 58.408 96.2613 58.408 96.368C58.408 96.4107 58.3547 96.448 58.248 96.48L58.168 96.512C58.0293 96.5547 57.912 96.6453 57.816 96.784L57.736 96.912C57.6827 96.9973 57.656 97.0667 57.656 97.12C57.656 97.1733 57.6827 97.2213 57.736 97.264C57.7893 97.296 57.8587 97.312 57.944 97.312H62.488ZM54.504 92.08C54.3973 92.08 54.312 92.112 54.248 92.176C54.1947 92.2293 54.168 92.3093 54.168 92.416V94.448C54.168 94.5547 54.1947 94.64 54.248 94.704C54.312 94.7573 54.3973 94.784 54.504 94.784H55.592C55.6987 94.784 55.7787 94.7573 55.832 94.704C55.896 94.64 55.928 94.5547 55.928 94.448V92.416C55.928 92.3093 55.896 92.2293 55.832 92.176C55.7787 92.112 55.6987 92.08 55.592 92.08H54.504ZM62.088 94.784C62.1947 94.784 62.2747 94.7573 62.328 94.704C62.392 94.64 62.424 94.5547 62.424 94.448V92.416C62.424 92.3093 62.392 92.2293 62.328 92.176C62.2747 92.112 62.1947 92.08 62.088 92.08H60.888C60.7813 92.08 60.696 92.112 60.632 92.176C60.5787 92.2293 60.552 92.3093 60.552 92.416V94.448C60.552 94.5547 60.5787 94.64 60.632 94.704C60.696 94.7573 60.7813 94.784 60.888 94.784H62.088ZM55.72 103.744C55.8267 103.744 55.9067 103.717 55.96 103.664C56.024 103.6 56.056 103.515 56.056 103.408V101.184C56.056 101.077 56.024 100.997 55.96 100.944C55.9067 100.88 55.8267 100.848 55.72 100.848H54.664C54.5573 100.848 54.472 100.88 54.408 100.944C54.3547 100.997 54.328 101.077 54.328 101.184V103.408C54.328 103.515 54.3547 103.6 54.408 103.664C54.472 103.717 54.5573 103.744 54.664 103.744H55.72ZM60.76 100.848C60.6533 100.848 60.568 100.88 60.504 100.944C60.4507 100.997 60.424 101.077 60.424 101.184V103.408C60.424 103.515 60.4507 103.6 60.504 103.664C60.568 103.717 60.6533 103.744 60.76 103.744H61.912C62.0187 103.744 62.0987 103.717 62.152 103.664C62.216 103.6 62.248 103.515 62.248 103.408V101.184C62.248 101.077 62.216 100.997 62.152 100.944C62.0987 100.88 62.0187 100.848 61.912 100.848H60.76ZM75.208 93.696C74.7813 93.984 74.2107 94.2667 73.496 94.544C73.4 94.5867 73.3253 94.6347 73.272 94.688C73.2293 94.7307 73.1973 94.7947 73.176 94.88C72.8667 95.7227 72.4453 96.832 71.912 98.208C71.3893 99.584 71.064 100.421 70.936 100.72C70.8187 100.976 70.6587 101.173 70.456 101.312C70.264 101.44 70.072 101.504 69.88 101.504C69.624 101.504 69.448 101.381 69.352 101.136C69.2667 100.891 69.224 100.544 69.224 100.096C69.224 99.904 69.2507 99.7547 69.304 99.648C69.3573 99.5307 69.464 99.376 69.624 99.184L69.976 98.752C70.6907 97.76 71.288 96.6293 71.768 95.36C71.8107 95.2533 71.8427 95.168 71.864 95.104C71.8853 95.04 71.8907 94.9973 71.88 94.976H71.832C71.2347 94.976 70.7707 94.8053 70.44 94.464C70.12 94.112 69.8853 93.76 69.736 93.408C69.6827 93.28 69.656 93.1893 69.656 93.136C69.656 93.0933 69.672 93.072 69.704 93.072C69.7467 93.072 69.8213 93.12 69.928 93.216C70.088 93.3653 70.3013 93.4827 70.568 93.568C70.8453 93.6533 71.128 93.696 71.416 93.696C71.4587 93.696 71.6507 93.6747 71.992 93.632C72.1947 93.6 72.3013 93.488 72.312 93.296C72.3333 93.1253 72.344 93.0027 72.344 92.928C72.344 92.4267 72.216 92.0853 71.96 91.904C71.8533 91.8187 71.736 91.7387 71.608 91.664C71.48 91.5893 71.416 91.536 71.416 91.504C71.416 91.4507 71.4693 91.4027 71.576 91.36C71.6933 91.3173 71.8427 91.296 72.024 91.296C72.28 91.296 72.536 91.3387 72.792 91.424C73.1867 91.552 73.4533 91.7333 73.592 91.968C73.6453 92.064 73.6987 92.1333 73.752 92.176C73.8053 92.208 73.88 92.224 73.976 92.224H74.056L74.664 92.16C74.8453 92.128 74.9733 92.112 75.048 92.112C75.2507 92.112 75.416 92.16 75.544 92.256C75.7253 92.3733 75.816 92.544 75.816 92.768C75.816 92.9387 75.752 93.1147 75.624 93.296C75.496 93.4667 75.3573 93.6 75.208 93.696ZM73.832 92.528C73.7787 92.528 73.752 92.56 73.752 92.624V92.72V92.848C73.752 93.0613 73.7947 93.1467 73.88 93.104C74.0933 92.9867 74.2 92.88 74.2 92.784C74.2 92.7093 74.12 92.64 73.96 92.576L73.864 92.528H73.832ZM77.864 95.776C77.512 95.776 77.24 95.9307 77.048 96.24C76.8667 96.5493 76.776 96.9813 76.776 97.536C76.776 97.9093 76.8027 98.304 76.856 98.72C76.9093 99.136 76.9893 99.6373 77.096 100.224L77.16 100.576C77.192 100.757 77.2987 100.869 77.48 100.912C78.28 101.115 78.9093 101.371 79.368 101.68C79.592 101.829 79.7627 102 79.88 102.192C79.9973 102.373 80.056 102.555 80.056 102.736C80.056 102.939 79.992 103.12 79.864 103.28C79.736 103.429 79.576 103.504 79.384 103.504C79.2027 103.504 79.0107 103.451 78.808 103.344C78.6053 103.237 78.3387 103.072 78.008 102.848L77.752 102.688C77.6667 102.645 77.608 102.624 77.576 102.624C77.448 102.624 77.368 102.715 77.336 102.896C77.2293 103.44 76.936 103.867 76.456 104.176C75.9867 104.496 75.4373 104.656 74.808 104.656C74.4027 104.656 74.008 104.581 73.624 104.432C73.2507 104.293 72.9413 104.08 72.696 103.792C72.4613 103.504 72.344 103.163 72.344 102.768C72.344 102.085 72.6587 101.563 73.288 101.2C73.928 100.827 74.6907 100.64 75.576 100.64C75.704 100.64 75.768 100.528 75.768 100.304C75.768 99.3973 75.784 98.736 75.816 98.32C75.8587 97.712 75.9653 97.216 76.136 96.832C76.3067 96.4373 76.568 96.112 76.92 95.856C77.2827 95.5893 77.7733 95.3493 78.392 95.136C78.552 95.0827 78.632 94.9973 78.632 94.88C78.632 94.6347 78.3493 94.2933 77.784 93.856C77.7627 93.8347 77.7307 93.8027 77.688 93.76C77.6453 93.7173 77.624 93.6853 77.624 93.664C77.624 93.6107 77.688 93.584 77.816 93.584C77.9547 93.584 78.104 93.6107 78.264 93.664C78.8613 93.7707 79.4053 94.0107 79.896 94.384C80.3973 94.7467 80.648 95.1627 80.648 95.632C80.648 95.9093 80.5627 96.1387 80.392 96.32C80.232 96.4907 80.0347 96.576 79.8 96.576C79.6293 96.576 79.4747 96.544 79.336 96.48C79.208 96.416 79.0267 96.2987 78.792 96.128C78.4613 95.8933 78.152 95.776 77.864 95.776ZM74.408 103.52C74.888 103.52 75.2187 103.408 75.4 103.184C75.592 102.96 75.704 102.64 75.736 102.224V102.176C75.736 101.995 75.64 101.888 75.448 101.856C75.1067 101.803 74.8293 101.776 74.616 101.776C74.1893 101.776 73.816 101.84 73.496 101.968C73.1867 102.096 73.032 102.304 73.032 102.592C73.032 102.88 73.1707 103.109 73.448 103.28C73.7253 103.44 74.0453 103.52 74.408 103.52ZM91.64 104.384C90.3387 104.384 89.3893 104 88.792 103.232C88.2053 102.453 87.912 101.307 87.912 99.792C87.912 98.992 87.944 98.24 88.008 97.536C88.0827 96.832 88.1253 96.4267 88.136 96.32C88.1467 96.2453 88.1733 95.9733 88.216 95.504C88.2693 95.0347 88.296 94.608 88.296 94.224C88.296 93.7547 88.2053 93.3493 88.024 93.008C87.8427 92.656 87.6133 92.4 87.336 92.24C87.2293 92.1867 87.176 92.1333 87.176 92.08C87.176 92.0053 87.2987 91.9467 87.544 91.904C87.8 91.8507 88.04 91.824 88.264 91.824C88.968 91.824 89.464 91.9893 89.752 92.32C90.0507 92.64 90.2 93.0933 90.2 93.68C90.2 94.0107 90.1573 94.3947 90.072 94.832C89.9973 95.2693 89.8853 95.7973 89.736 96.416C89.4587 97.6 89.32 98.6827 89.32 99.664C89.32 100.795 89.5387 101.6 89.976 102.08C90.424 102.549 91.1493 102.784 92.152 102.784C93.816 102.784 95.5707 101.931 97.416 100.224C97.5547 100.107 97.656 100.048 97.72 100.048C97.7413 100.048 97.752 100.064 97.752 100.096C97.752 100.171 97.6987 100.283 97.592 100.432C95.7787 103.067 93.7947 104.384 91.64 104.384Z" fill="#875408"/>
<g filter="url(#filter7_g_588_4264)">
<path d="M91.2203 79.512L94.9188 83.2105L101.431 89.7228L105.115 93.4067L106.1 85.9237L106.656 81.6555L102.972 77.9715L96.4593 71.4593L92.7608 67.7608L51.1054 26.1054L46.8517 26.6751L39.3542 27.6458L91.2203 79.512Z" fill="#875408"/>
</g>
<defs>
<filter id="filter1_g_588_4264" x="0" y="54.586" width="42.4733" height="62.6048" filterUnits="userSpaceOnUse" color-interpolation-filters="sRGB">
<feFlood flood-opacity="0" result="BackgroundImageFix"/>
<feBlend mode="normal" in="SourceGraphic" in2="BackgroundImageFix" result="shape"/>
<feTurbulence type="fractalNoise" baseFrequency="1 1" numOctaves="3" seed="363" />
<feDisplacementMap in="shape" scale="2" xChannelSelector="R" yChannelSelector="G" result="displacedImage" width="100%" height="100%" />
<feMerge result="effect1_texture_588_4264">
<feMergeNode in="displacedImage"/>
</feMerge>
</filter>
<filter id="filter2_g_588_4264" x="31.5563" y="118.586" width="72.067" height="11.414" filterUnits="userSpaceOnUse" color-interpolation-filters="sRGB">
<feFlood flood-opacity="0" result="BackgroundImageFix"/>
<feBlend mode="normal" in="SourceGraphic" in2="BackgroundImageFix" result="shape"/>
<feTurbulence type="fractalNoise" baseFrequency="1 1" numOctaves="3" seed="363" />
<feDisplacementMap in="shape" scale="2" xChannelSelector="R" yChannelSelector="G" result="displacedImage" width="100%" height="100%" />
<feMerge result="effect1_texture_588_4264">
<feMergeNode in="displacedImage"/>
</feMerge>
</filter>
<filter id="filter3_g_588_4264" x="100.124" y="67.3953" width="42.4733" height="62.6048" filterUnits="userSpaceOnUse" color-interpolation-filters="sRGB">
<feFlood flood-opacity="0" result="BackgroundImageFix"/>
<feBlend mode="normal" in="SourceGraphic" in2="BackgroundImageFix" result="shape"/>
<feTurbulence type="fractalNoise" baseFrequency="1 1" numOctaves="3" seed="363" />
<feDisplacementMap in="shape" scale="2" xChannelSelector="R" yChannelSelector="G" result="displacedImage" width="100%" height="100%" />
<feMerge result="effect1_texture_588_4264">
<feMergeNode in="displacedImage"/>
</feMerge>
</filter>
<filter id="filter4_g_588_4264" x="107.527" y="12.8093" width="42.4733" height="62.5894" filterUnits="userSpaceOnUse" color-interpolation-filters="sRGB">
<feFlood flood-opacity="0" result="BackgroundImageFix"/>
<feBlend mode="normal" in="SourceGraphic" in2="BackgroundImageFix" result="shape"/>
<feTurbulence type="fractalNoise" baseFrequency="1 1" numOctaves="3" seed="363" />
<feDisplacementMap in="shape" scale="2" xChannelSelector="R" yChannelSelector="G" result="displacedImage" width="100%" height="100%" />
<feMerge result="effect1_texture_588_4264">
<feMergeNode in="displacedImage"/>
</feMerge>
</filter>
<filter id="filter5_g_588_4264" x="46.3608" y="0" width="72.067" height="11.3986" filterUnits="userSpaceOnUse" color-interpolation-filters="sRGB">
<feFlood flood-opacity="0" result="BackgroundImageFix"/>
<feBlend mode="normal" in="SourceGraphic" in2="BackgroundImageFix" result="shape"/>
<feTurbulence type="fractalNoise" baseFrequency="1 1" numOctaves="3" seed="363" />
<feDisplacementMap in="shape" scale="2" xChannelSelector="R" yChannelSelector="G" result="displacedImage" width="100%" height="100%" />
<feMerge result="effect1_texture_588_4264">
<feMergeNode in="displacedImage"/>
</feMerge>
</filter>
<filter id="filter6_g_588_4264" x="7.40259" y="0" width="42.4733" height="62.5893" filterUnits="userSpaceOnUse" color-interpolation-filters="sRGB">
<feFlood flood-opacity="0" result="BackgroundImageFix"/>
<feBlend mode="normal" in="SourceGraphic" in2="BackgroundImageFix" result="shape"/>
<feTurbulence type="fractalNoise" baseFrequency="1 1" numOctaves="3" seed="363" />
<feDisplacementMap in="shape" scale="2" xChannelSelector="R" yChannelSelector="G" result="displacedImage" width="100%" height="100%" />
<feMerge result="effect1_texture_588_4264">
<feMergeNode in="displacedImage"/>
</feMerge>
</filter>
<filter id="filter7_g_588_4264" x="38.3541" y="25.1054" width="69.3014" height="69.3013" filterUnits="userSpaceOnUse" color-interpolation-filters="sRGB">
<feFlood flood-opacity="0" result="BackgroundImageFix"/>
<feBlend mode="normal" in="SourceGraphic" in2="BackgroundImageFix" result="shape"/>
<feTurbulence type="fractalNoise" baseFrequency="1 1" numOctaves="3" seed="363" />
<feDisplacementMap in="shape" scale="2" xChannelSelector="R" yChannelSelector="G" result="displacedImage" width="100%" height="100%" />
<feMerge result="effect1_texture_588_4264">
<feMergeNode in="displacedImage"/>
</feMerge>
</filter>
</defs>
</svg>
