<svg width="150" height="130" viewBox="0 0 150 130" fill="none" xmlns="http://www.w3.org/2000/svg">
<g filter="url(#filter1_g_588_4236)">
<path d="M41.4732 116.191L13.842 68.3952L11.8794 65L8.40232 58.9966L6.4397 55.586L2.96262 61.5893L1 65L2.96262 68.3952L6.4397 74.3986L8.40232 77.7938L30.5938 116.191H34.5345H41.4732Z" fill="#0B2E54"/>
</g>
<g filter="url(#filter2_g_588_4236)">
<path d="M47.3608 119.586H43.4356H36.4968H32.5562L36.0332 125.589L37.9959 129H41.9365H48.8753H52.8005H97.1835L99.1616 125.589L102.623 119.586H47.3608Z" fill="#0B2E54"/>
</g>
<g filter="url(#filter3_g_588_4236)">
<path d="M136.158 68.3953L108.527 116.191L106.564 119.586L103.087 125.589L101.124 129H108.063H111.988L113.966 125.589L117.428 119.586L119.391 116.191L141.597 77.7939L139.619 74.3986L136.158 68.3953Z" fill="#0B2E54"/>
</g>
<g filter="url(#filter4_g_588_4236)">
<path d="M147.022 61.5894L143.56 55.586L141.598 52.1908L119.391 13.8093H115.466H108.527L136.158 61.5894L138.121 65.0001L141.598 71.0034L143.56 74.3987L147.022 68.3953L149 65.0001L147.022 61.5894Z" fill="#0B2E54"/>
</g>
<g filter="url(#filter5_g_588_4236)">
<path d="M102.623 10.3986H106.564H113.503H117.428L113.966 4.41066L111.988 1H108.063H101.124H97.1835H52.8005L50.8379 4.41066L47.3608 10.3986H102.623Z" fill="#0B2E54"/>
</g>
<g filter="url(#filter6_g_588_4236)">
<path d="M13.8423 61.5893L41.4735 13.8093L43.4361 10.3986L46.8977 4.41066L48.8758 1H41.9371H37.9964L36.0338 4.41066L32.5567 10.3986L30.5941 13.8093L8.40259 52.1907L10.3652 55.6014L13.8423 61.5893Z" fill="#0B2E54"/>
</g>
<path fill-rule="evenodd" clip-rule="evenodd" d="M74.9999 76.6667C81.0666 76.6667 86.6986 73.5253 89.8852 68.368C93.0746 63.208 93.3652 56.768 90.6532 51.3413C84.2612 38.56 77.3839 24.808 77.3839 24.808C76.9332 23.904 76.0106 23.3333 74.9999 23.3333C73.9892 23.3333 73.0666 23.904 72.6159 24.808C72.6159 24.808 65.7386 38.56 59.3466 51.3413C56.6346 56.768 56.9252 63.208 60.1146 68.368C63.3012 73.5253 68.9332 76.6667 74.9999 76.6667ZM74.9999 31.9627L64.1172 53.728C62.2319 57.4987 62.4346 61.976 64.6506 65.5627C66.8666 69.1493 70.7812 71.3333 74.9999 71.3333C79.2186 71.3333 83.1332 69.1493 85.3492 65.5627C87.5652 61.976 87.7679 57.4987 85.8825 53.728L74.9999 31.9627ZM74.9999 66C77.6372 66 80.0879 64.6347 81.4746 62.3893C82.8612 60.1467 82.9866 57.344 81.8079 54.9867C81.1492 53.6693 79.5466 53.136 78.2292 53.792C76.9146 54.4507 76.3786 56.0533 77.0372 57.3707C77.3892 58.0773 77.3519 58.9147 76.9386 59.5867C76.5226 60.2587 75.7892 60.6667 74.9999 60.6667C73.5279 60.6667 72.3332 61.8613 72.3332 63.3333C72.3332 64.8053 73.5279 66 74.9999 66Z" fill="#0B2E54"/>
<path d="M60.328 96.72C60.392 96.848 60.4667 96.912 60.552 96.912C60.6373 96.912 60.7173 96.8587 60.792 96.752C61.176 96.2187 61.5547 95.6533 61.928 95.056C62.312 94.4587 62.6267 93.92 62.872 93.44C62.936 93.3227 63.0267 93.264 63.144 93.264C63.208 93.264 63.2773 93.2853 63.352 93.328C64.4507 94.0107 65 94.4267 65 94.576C65 94.6187 64.9467 94.6507 64.84 94.672L64.76 94.688C64.6 94.72 64.472 94.7787 64.376 94.864C63.288 95.8133 62.168 96.64 61.016 97.344C60.8987 97.408 60.84 97.4933 60.84 97.6C60.84 97.664 60.8613 97.7333 60.904 97.808C61.9493 99.5147 63.3893 100.853 65.224 101.824C65.416 101.92 65.5013 101.995 65.48 102.048C65.4587 102.091 65.4107 102.128 65.336 102.16C65.272 102.181 65.224 102.197 65.192 102.208C64.936 102.304 64.7013 102.464 64.488 102.688C64.2853 102.901 64.12 103.157 63.992 103.456C63.928 103.605 63.848 103.68 63.752 103.68C63.7093 103.68 63.6453 103.648 63.56 103.584C62.376 102.507 61.4213 101.221 60.696 99.728C59.9813 98.2347 59.4533 96.288 59.112 93.888V103.104C59.112 103.573 59.0587 103.952 58.952 104.24C58.856 104.539 58.6533 104.784 58.344 104.976C58.0347 105.168 57.576 105.301 56.968 105.376H56.92C56.7173 105.376 56.6 105.275 56.568 105.072C56.504 104.592 56.376 104.251 56.184 104.048C56.0453 103.899 55.88 103.776 55.688 103.68C55.5067 103.584 55.2507 103.504 54.92 103.44C54.7173 103.397 54.616 103.339 54.616 103.264C54.616 103.2 54.7333 103.168 54.968 103.168C55.2987 103.2 55.6453 103.227 56.008 103.248C56.3707 103.269 56.664 103.28 56.888 103.28C57.0267 103.28 57.1227 103.259 57.176 103.216C57.2293 103.163 57.256 103.083 57.256 102.976V93.616C57.256 92.5493 57.208 91.5893 57.112 90.736V90.672C57.112 90.576 57.144 90.5067 57.208 90.464C57.272 90.4107 57.3627 90.4 57.48 90.432C58.824 90.7413 59.496 90.9707 59.496 91.12C59.496 91.152 59.4587 91.1947 59.384 91.248L59.336 91.28C59.1867 91.376 59.112 91.5093 59.112 91.68V92.544C59.112 92.6613 59.128 92.816 59.16 93.008C59.416 94.3733 59.8053 95.6107 60.328 96.72ZM54.744 95.84C54.744 95.7547 54.712 95.6907 54.648 95.648C54.5947 95.5947 54.52 95.568 54.424 95.568H53.624C53.0587 95.5787 52.4507 95.6373 51.8 95.744H51.704C51.5653 95.744 51.4587 95.6747 51.384 95.536L51.32 95.408C51.2773 95.3013 51.256 95.2373 51.256 95.216C51.256 95.152 51.2827 95.104 51.336 95.072C51.3893 95.0293 51.464 95.0133 51.56 95.024C51.9227 95.056 52.472 95.0827 53.208 95.104H54.424C54.6053 95.104 54.744 95.04 54.84 94.912L55.112 94.608C55.1653 94.5547 55.2293 94.4853 55.304 94.4C55.3893 94.304 55.4587 94.2347 55.512 94.192C55.5653 94.1387 55.6133 94.112 55.656 94.112C55.7307 94.112 55.9493 94.2667 56.312 94.576C56.6747 94.8853 56.9413 95.1467 57.112 95.36C57.1653 95.4347 57.192 95.4987 57.192 95.552C57.192 95.6267 57.144 95.6907 57.048 95.744L56.92 95.792C56.728 95.8453 56.6107 95.952 56.568 96.112C55.704 99.6533 53.9333 102.197 51.256 103.744C51.0853 103.829 50.9733 103.845 50.92 103.792C50.9093 103.781 50.904 103.765 50.904 103.744C50.904 103.691 50.9627 103.605 51.08 103.488C52.0293 102.581 52.8027 101.472 53.4 100.16C54.008 98.848 54.4507 97.44 54.728 95.936L54.744 95.84ZM75.208 93.696C74.7813 93.984 74.2107 94.2667 73.496 94.544C73.4 94.5867 73.3253 94.6347 73.272 94.688C73.2293 94.7307 73.1973 94.7947 73.176 94.88C72.8667 95.7227 72.4453 96.832 71.912 98.208C71.3893 99.584 71.064 100.421 70.936 100.72C70.8187 100.976 70.6587 101.173 70.456 101.312C70.264 101.44 70.072 101.504 69.88 101.504C69.624 101.504 69.448 101.381 69.352 101.136C69.2667 100.891 69.224 100.544 69.224 100.096C69.224 99.904 69.2507 99.7547 69.304 99.648C69.3573 99.5307 69.464 99.376 69.624 99.184L69.976 98.752C70.6907 97.76 71.288 96.6293 71.768 95.36C71.8107 95.2533 71.8427 95.168 71.864 95.104C71.8853 95.04 71.8907 94.9973 71.88 94.976H71.832C71.2347 94.976 70.7707 94.8053 70.44 94.464C70.12 94.112 69.8853 93.76 69.736 93.408C69.6827 93.28 69.656 93.1893 69.656 93.136C69.656 93.0933 69.672 93.072 69.704 93.072C69.7467 93.072 69.8213 93.12 69.928 93.216C70.088 93.3653 70.3013 93.4827 70.568 93.568C70.8453 93.6533 71.128 93.696 71.416 93.696C71.4587 93.696 71.6507 93.6747 71.992 93.632C72.1947 93.6 72.3013 93.488 72.312 93.296C72.3333 93.1253 72.344 93.0027 72.344 92.928C72.344 92.4267 72.216 92.0853 71.96 91.904C71.8533 91.8187 71.736 91.7387 71.608 91.664C71.48 91.5893 71.416 91.536 71.416 91.504C71.416 91.4507 71.4693 91.4027 71.576 91.36C71.6933 91.3173 71.8427 91.296 72.024 91.296C72.28 91.296 72.536 91.3387 72.792 91.424C73.1867 91.552 73.4533 91.7333 73.592 91.968C73.6453 92.064 73.6987 92.1333 73.752 92.176C73.8053 92.208 73.88 92.224 73.976 92.224H74.056L74.664 92.16C74.8453 92.128 74.9733 92.112 75.048 92.112C75.2507 92.112 75.416 92.16 75.544 92.256C75.7253 92.3733 75.816 92.544 75.816 92.768C75.816 92.9387 75.752 93.1147 75.624 93.296C75.496 93.4667 75.3573 93.6 75.208 93.696ZM73.832 92.528C73.7787 92.528 73.752 92.56 73.752 92.624V92.72V92.848C73.752 93.0613 73.7947 93.1467 73.88 93.104C74.0933 92.9867 74.2 92.88 74.2 92.784C74.2 92.7093 74.12 92.64 73.96 92.576L73.864 92.528H73.832ZM77.864 95.776C77.512 95.776 77.24 95.9307 77.048 96.24C76.8667 96.5493 76.776 96.9813 76.776 97.536C76.776 97.9093 76.8027 98.304 76.856 98.72C76.9093 99.136 76.9893 99.6373 77.096 100.224L77.16 100.576C77.192 100.757 77.2987 100.869 77.48 100.912C78.28 101.115 78.9093 101.371 79.368 101.68C79.592 101.829 79.7627 102 79.88 102.192C79.9973 102.373 80.056 102.555 80.056 102.736C80.056 102.939 79.992 103.12 79.864 103.28C79.736 103.429 79.576 103.504 79.384 103.504C79.2027 103.504 79.0107 103.451 78.808 103.344C78.6053 103.237 78.3387 103.072 78.008 102.848L77.752 102.688C77.6667 102.645 77.608 102.624 77.576 102.624C77.448 102.624 77.368 102.715 77.336 102.896C77.2293 103.44 76.936 103.867 76.456 104.176C75.9867 104.496 75.4373 104.656 74.808 104.656C74.4027 104.656 74.008 104.581 73.624 104.432C73.2507 104.293 72.9413 104.08 72.696 103.792C72.4613 103.504 72.344 103.163 72.344 102.768C72.344 102.085 72.6587 101.563 73.288 101.2C73.928 100.827 74.6907 100.64 75.576 100.64C75.704 100.64 75.768 100.528 75.768 100.304C75.768 99.3973 75.784 98.736 75.816 98.32C75.8587 97.712 75.9653 97.216 76.136 96.832C76.3067 96.4373 76.568 96.112 76.92 95.856C77.2827 95.5893 77.7733 95.3493 78.392 95.136C78.552 95.0827 78.632 94.9973 78.632 94.88C78.632 94.6347 78.3493 94.2933 77.784 93.856C77.7627 93.8347 77.7307 93.8027 77.688 93.76C77.6453 93.7173 77.624 93.6853 77.624 93.664C77.624 93.6107 77.688 93.584 77.816 93.584C77.9547 93.584 78.104 93.6107 78.264 93.664C78.8613 93.7707 79.4053 94.0107 79.896 94.384C80.3973 94.7467 80.648 95.1627 80.648 95.632C80.648 95.9093 80.5627 96.1387 80.392 96.32C80.232 96.4907 80.0347 96.576 79.8 96.576C79.6293 96.576 79.4747 96.544 79.336 96.48C79.208 96.416 79.0267 96.2987 78.792 96.128C78.4613 95.8933 78.152 95.776 77.864 95.776ZM74.408 103.52C74.888 103.52 75.2187 103.408 75.4 103.184C75.592 102.96 75.704 102.64 75.736 102.224V102.176C75.736 101.995 75.64 101.888 75.448 101.856C75.1067 101.803 74.8293 101.776 74.616 101.776C74.1893 101.776 73.816 101.84 73.496 101.968C73.1867 102.096 73.032 102.304 73.032 102.592C73.032 102.88 73.1707 103.109 73.448 103.28C73.7253 103.44 74.0453 103.52 74.408 103.52ZM91.64 104.384C90.3387 104.384 89.3893 104 88.792 103.232C88.2053 102.453 87.912 101.307 87.912 99.792C87.912 98.992 87.944 98.24 88.008 97.536C88.0827 96.832 88.1253 96.4267 88.136 96.32C88.1467 96.2453 88.1733 95.9733 88.216 95.504C88.2693 95.0347 88.296 94.608 88.296 94.224C88.296 93.7547 88.2053 93.3493 88.024 93.008C87.8427 92.656 87.6133 92.4 87.336 92.24C87.2293 92.1867 87.176 92.1333 87.176 92.08C87.176 92.0053 87.2987 91.9467 87.544 91.904C87.8 91.8507 88.04 91.824 88.264 91.824C88.968 91.824 89.464 91.9893 89.752 92.32C90.0507 92.64 90.2 93.0933 90.2 93.68C90.2 94.0107 90.1573 94.3947 90.072 94.832C89.9973 95.2693 89.8853 95.7973 89.736 96.416C89.4587 97.6 89.32 98.6827 89.32 99.664C89.32 100.795 89.5387 101.6 89.976 102.08C90.424 102.549 91.1493 102.784 92.152 102.784C93.816 102.784 95.5707 101.931 97.416 100.224C97.5547 100.107 97.656 100.048 97.72 100.048C97.7413 100.048 97.752 100.064 97.752 100.096C97.752 100.171 97.6987 100.283 97.592 100.432C95.7787 103.067 93.7947 104.384 91.64 104.384Z" fill="#0B2E54"/>
<g filter="url(#filter7_g_588_4236)">
<path d="M91.2203 79.512L94.9188 83.2105L101.431 89.7228L105.115 93.4067L106.1 85.9237L106.656 81.6555L102.972 77.9715L96.4593 71.4593L92.7608 67.7608L51.1054 26.1054L46.8517 26.6751L39.3542 27.6458L91.2203 79.512Z" fill="#0B2E54"/>
</g>
<defs>
<filter id="filter1_g_588_4236" x="0" y="54.586" width="42.4731" height="62.6048" filterUnits="userSpaceOnUse" color-interpolation-filters="sRGB">
<feFlood flood-opacity="0" result="BackgroundImageFix"/>
<feBlend mode="normal" in="SourceGraphic" in2="BackgroundImageFix" result="shape"/>
<feTurbulence type="fractalNoise" baseFrequency="1 1" numOctaves="3" seed="363" />
<feDisplacementMap in="shape" scale="2" xChannelSelector="R" yChannelSelector="G" result="displacedImage" width="100%" height="100%" />
<feMerge result="effect1_texture_588_4236">
<feMergeNode in="displacedImage"/>
</feMerge>
</filter>
<filter id="filter2_g_588_4236" x="31.5562" y="118.586" width="72.0671" height="11.414" filterUnits="userSpaceOnUse" color-interpolation-filters="sRGB">
<feFlood flood-opacity="0" result="BackgroundImageFix"/>
<feBlend mode="normal" in="SourceGraphic" in2="BackgroundImageFix" result="shape"/>
<feTurbulence type="fractalNoise" baseFrequency="1 1" numOctaves="3" seed="363" />
<feDisplacementMap in="shape" scale="2" xChannelSelector="R" yChannelSelector="G" result="displacedImage" width="100%" height="100%" />
<feMerge result="effect1_texture_588_4236">
<feMergeNode in="displacedImage"/>
</feMerge>
</filter>
<filter id="filter3_g_588_4236" x="100.124" y="67.3953" width="42.4733" height="62.6048" filterUnits="userSpaceOnUse" color-interpolation-filters="sRGB">
<feFlood flood-opacity="0" result="BackgroundImageFix"/>
<feBlend mode="normal" in="SourceGraphic" in2="BackgroundImageFix" result="shape"/>
<feTurbulence type="fractalNoise" baseFrequency="1 1" numOctaves="3" seed="363" />
<feDisplacementMap in="shape" scale="2" xChannelSelector="R" yChannelSelector="G" result="displacedImage" width="100%" height="100%" />
<feMerge result="effect1_texture_588_4236">
<feMergeNode in="displacedImage"/>
</feMerge>
</filter>
<filter id="filter4_g_588_4236" x="107.527" y="12.8093" width="42.4733" height="62.5894" filterUnits="userSpaceOnUse" color-interpolation-filters="sRGB">
<feFlood flood-opacity="0" result="BackgroundImageFix"/>
<feBlend mode="normal" in="SourceGraphic" in2="BackgroundImageFix" result="shape"/>
<feTurbulence type="fractalNoise" baseFrequency="1 1" numOctaves="3" seed="363" />
<feDisplacementMap in="shape" scale="2" xChannelSelector="R" yChannelSelector="G" result="displacedImage" width="100%" height="100%" />
<feMerge result="effect1_texture_588_4236">
<feMergeNode in="displacedImage"/>
</feMerge>
</filter>
<filter id="filter5_g_588_4236" x="46.3608" y="0" width="72.067" height="11.3986" filterUnits="userSpaceOnUse" color-interpolation-filters="sRGB">
<feFlood flood-opacity="0" result="BackgroundImageFix"/>
<feBlend mode="normal" in="SourceGraphic" in2="BackgroundImageFix" result="shape"/>
<feTurbulence type="fractalNoise" baseFrequency="1 1" numOctaves="3" seed="363" />
<feDisplacementMap in="shape" scale="2" xChannelSelector="R" yChannelSelector="G" result="displacedImage" width="100%" height="100%" />
<feMerge result="effect1_texture_588_4236">
<feMergeNode in="displacedImage"/>
</feMerge>
</filter>
<filter id="filter6_g_588_4236" x="7.40259" y="0" width="42.4731" height="62.5893" filterUnits="userSpaceOnUse" color-interpolation-filters="sRGB">
<feFlood flood-opacity="0" result="BackgroundImageFix"/>
<feBlend mode="normal" in="SourceGraphic" in2="BackgroundImageFix" result="shape"/>
<feTurbulence type="fractalNoise" baseFrequency="1 1" numOctaves="3" seed="363" />
<feDisplacementMap in="shape" scale="2" xChannelSelector="R" yChannelSelector="G" result="displacedImage" width="100%" height="100%" />
<feMerge result="effect1_texture_588_4236">
<feMergeNode in="displacedImage"/>
</feMerge>
</filter>
<filter id="filter7_g_588_4236" x="38.3542" y="25.1054" width="69.3013" height="69.3013" filterUnits="userSpaceOnUse" color-interpolation-filters="sRGB">
<feFlood flood-opacity="0" result="BackgroundImageFix"/>
<feBlend mode="normal" in="SourceGraphic" in2="BackgroundImageFix" result="shape"/>
<feTurbulence type="fractalNoise" baseFrequency="1 1" numOctaves="3" seed="363" />
<feDisplacementMap in="shape" scale="2" xChannelSelector="R" yChannelSelector="G" result="displacedImage" width="100%" height="100%" />
<feMerge result="effect1_texture_588_4236">
<feMergeNode in="displacedImage"/>
</feMerge>
</filter>
</defs>
</svg>
