<svg preserveAspectRatio="none" width="100%" height="100%" overflow="visible" style="display: block;" viewBox="0 0 64 64" fill="none" xmlns="http://www.w3.org/2000/svg">
<g id="trash-can 1">
<path id="Vector" fill-rule="evenodd" clip-rule="evenodd" d="M13.2146 22.9658C14.3013 22.7676 15.3428 23.4879 15.541 24.5745L20.4491 51.4899C20.7049 52.9288 21.976 54 23.4666 54H40.5067C42.0069 54 43.268 52.9467 43.5235 51.4936L43.5259 51.4811L48.4325 24.5745C48.6307 23.4879 49.6723 22.7676 50.7589 22.9658C51.8456 23.1639 52.5659 24.2055 52.3677 25.2921L47.4619 52.1931C46.8613 55.5899 43.9109 58 40.5067 58H23.4666C20.0522 58 17.1112 55.5536 16.5117 52.1947L16.5109 52.1901L11.6058 25.2921C11.4077 24.2055 12.128 23.1639 13.2146 22.9658ZM6.08008 16.48C6.08008 15.3754 6.97552 14.48 8.08008 14.48H56.08C57.1845 14.48 58.08 15.3754 58.08 16.48C58.08 17.5846 57.1845 18.48 56.08 18.48H8.08008C6.97552 18.48 6.08008 17.5846 6.08008 16.48Z" fill="var(--fill-0, #AF752E)"/>
<path id="Vector_2" fill-rule="evenodd" clip-rule="evenodd" d="M24.9179 10.3116L21.0068 17.4418C20.4756 18.4103 19.2599 18.7647 18.2914 18.2335C17.323 17.7023 16.9685 16.4866 17.4997 15.5181L21.4331 8.3472C22.2318 6.93771 23.7402 6.02664 25.3867 6.02664H38.6133C40.2608 6.02664 41.7995 6.91805 42.5851 8.38029L46.5003 15.5181C47.0315 16.4866 46.6771 17.7023 45.7085 18.2335C44.7403 18.7647 43.5245 18.4103 42.9933 17.4418L39.0619 10.2746C38.992 10.1438 38.828 10.0266 38.6133 10.0266H25.3867C25.2222 10.0266 25.0267 10.1261 24.9179 10.3116ZM24.64 34.6667C24.64 33.5621 25.5354 32.6667 26.64 32.6667H37.36C38.4645 32.6667 39.36 33.5621 39.36 34.6667C39.36 35.7712 38.4645 36.6667 37.36 36.6667H26.64C25.5354 36.6667 24.64 35.7712 24.64 34.6667Z" fill="var(--fill-0, #AF752E)"/>
</g>
</svg>
