<svg preserveAspectRatio="none" width="100%" height="100%" overflow="visible" style="display: block;" viewBox="0 0 38 54" fill="none" xmlns="http://www.w3.org/2000/svg">
<g id="Group">
<path id="Vector" d="M34.6667 0H2.66667C1.95942 0 1.28115 0.280951 0.781049 0.781048C0.280952 1.28115 0 1.95942 0 2.66667V48C0 48.7072 0.280952 49.3855 0.781049 49.8856C1.28115 50.3857 1.95942 50.6667 2.66667 50.6667H5.33333C5.33333 51.3739 5.61429 52.0522 6.11438 52.5523C6.61448 53.0524 7.29276 53.3333 8 53.3333C8.70724 53.3333 9.38552 53.0524 9.88562 52.5523C10.3857 52.0522 10.6667 51.3739 10.6667 50.6667H26.6667C26.6667 51.3739 26.9476 52.0522 27.4477 52.5523C27.9478 53.0524 28.6261 53.3333 29.3333 53.3333C30.0406 53.3333 30.7189 53.0524 31.219 52.5523C31.719 52.0522 32 51.3739 32 50.6667H34.6667C35.3739 50.6667 36.0522 50.3857 36.5523 49.8856C37.0524 49.3855 37.3333 48.7072 37.3333 48V2.66667C37.3333 1.95942 37.0524 1.28115 36.5523 0.781048C36.0522 0.280951 35.3739 0 34.6667 0ZM32 5.33333V16H5.33333V5.33333H32ZM5.33333 45.3333V21.3333H32V45.3333H5.33333Z" fill="var(--fill-0, #AC092F)"/>
<path id="Vector_2" d="M10.6667 24C9.95942 24 9.28114 24.281 8.78105 24.781C8.28095 25.2811 8 25.9594 8 26.6667V32C8 32.7072 8.28095 33.3855 8.78105 33.8856C9.28114 34.3857 9.95942 34.6667 10.6667 34.6667C11.3739 34.6667 12.0522 34.3857 12.5523 33.8856C13.0524 33.3855 13.3333 32.7072 13.3333 32V26.6667C13.3333 25.9594 13.0524 25.2811 12.5523 24.781C12.0522 24.281 11.3739 24 10.6667 24ZM10.6667 13.3333H13.3333C14.0406 13.3333 14.7189 13.0524 15.2189 12.5523C15.719 12.0522 16 11.3739 16 10.6667C16 9.95942 15.719 9.28115 15.2189 8.78105C14.7189 8.28095 14.0406 8 13.3333 8H10.6667C9.95942 8 9.28114 8.28095 8.78105 8.78105C8.28095 9.28115 8 9.95942 8 10.6667C8 11.3739 8.28095 12.0522 8.78105 12.5523C9.28114 13.0524 9.95942 13.3333 10.6667 13.3333Z" fill="var(--fill-0, #AC092F)"/>
</g>
</svg>
