<svg preserveAspectRatio="none" width="100%" height="100%" overflow="visible" style="display: block;" viewBox="0 0 32 32" fill="none" xmlns="http://www.w3.org/2000/svg">
<g id="Group">
<path id="Vector" d="M15.7219 18.1996C15.8084 18.3676 15.9012 18.5294 16.0001 18.6912C16.099 18.5294 16.1917 18.3676 16.2783 18.1996C16.1856 18.1996 16.0928 18.2121 16.0001 18.2121C15.9073 18.2121 15.8146 18.1996 15.7219 18.1996Z" fill="var(--fill-0, #DB5331)"/>
<path id="Vector_2" d="M15.9999 16.2086C15.7094 16.4139 15.4311 16.6441 15.1715 16.8806C15.2209 17.0361 15.2766 17.1792 15.3322 17.3286C15.5548 17.3472 15.7774 17.3597 15.9999 17.3597C16.2225 17.3597 16.4451 17.341 16.6676 17.3286C16.7233 17.1792 16.7851 17.0299 16.8346 16.8806C16.5687 16.6379 16.2967 16.4139 16.0061 16.2086H15.9999Z" fill="var(--fill-0, #DB5331)"/>
<path id="Vector_3" d="M22.1823 14.7275C21.7804 14.6715 21.3662 14.6279 20.9458 14.6279C19.9257 14.6279 18.9551 14.8146 18.0462 15.1444C17.9968 15.6483 17.8979 16.1399 17.7742 16.619C17.9164 16.7683 18.0524 16.9239 18.1884 17.0794C19.7279 16.6688 21.1004 15.8537 22.1761 14.7337L22.1823 14.7275Z" fill="var(--fill-0, #DB5331)"/>
<path id="Vector_4" d="M15.2392 15.7229C15.1155 15.6545 14.9857 15.5923 14.8559 15.5238C14.8806 15.6669 14.893 15.8163 14.9239 15.9594C15.0228 15.8723 15.1341 15.7976 15.2392 15.7229Z" fill="var(--fill-0, #DB5331)"/>
<path id="Vector_5" d="M17.0762 15.9594C17.1072 15.8163 17.1195 15.6669 17.1442 15.5238C17.0144 15.586 16.8846 15.6483 16.7609 15.7167C16.866 15.7976 16.9773 15.8723 17.0762 15.9531V15.9594Z" fill="var(--fill-0, #DB5331)"/>
<path id="Vector_6" d="M17.2368 14.541C17.2368 14.429 17.2554 14.317 17.2554 14.205C17.2554 12.5624 16.7917 11.0256 16.0003 9.71895C15.209 11.0318 14.7453 12.5624 14.7453 14.205C14.7453 14.317 14.7577 14.429 14.7639 14.541C15.1966 14.7277 15.6047 14.9517 16.0065 15.2006C16.4022 14.9517 16.8164 14.7277 17.243 14.541H17.2368Z" fill="var(--fill-0, #DB5331)"/>
<path id="Vector_7" d="M23.7094 14.1924C26.5224 15.0573 28.7728 17.2101 29.8052 19.9665C31.1654 18.4297 32 16.4137 32 14.2049C32 9.97388 28.9706 6.43975 24.983 5.68066C25.2983 6.62642 25.4714 7.63439 25.4714 8.68592C25.4714 10.7392 24.816 12.6369 23.7156 14.1987L23.7094 14.1924Z" fill="var(--fill-0, #DB5331)"/>
<path id="Vector_8" d="M20.5198 23.2894C20.5198 23.2894 20.5198 23.3019 20.5198 23.3081C20.5198 26.4067 19.0422 29.1506 16.7609 30.8928C18.0036 31.5896 19.4317 31.9878 20.9464 31.9878C25.7007 31.9878 29.5771 28.0928 29.5771 23.3019C29.5771 22.6983 29.5152 22.1072 29.3978 21.541C27.7594 22.9036 25.6574 23.725 23.3699 23.725C22.3746 23.725 21.4225 23.5694 20.5198 23.2832V23.2894Z" fill="var(--fill-0, #DB5331)"/>
<path id="Vector_9" d="M16.0004 20.1719C15.0298 21.379 13.7747 22.3496 12.3404 22.9718C12.3404 23.0838 12.3219 23.1958 12.3219 23.3078C12.3219 26.2446 13.7809 28.8392 16.0004 30.4072C18.2199 28.833 19.6789 26.2384 19.6789 23.3078C19.6789 23.1958 19.6666 23.0838 19.6604 22.9718C18.2199 22.3558 16.971 21.3852 16.0004 20.1719Z" fill="var(--fill-0, #DB5331)"/>
<path id="Vector_10" d="M15.4807 19.4627C15.2025 19.0396 14.9614 18.5916 14.7512 18.1249C14.541 18.0938 14.3308 18.0689 14.1206 18.0254C13.2551 19.1578 12.6616 20.508 12.4328 21.9826C13.6322 21.3853 14.6708 20.5204 15.4807 19.4565V19.4627Z" fill="var(--fill-0, #DB5331)"/>
<path id="Vector_11" d="M2.19476 19.9667C3.22722 17.2165 5.47761 15.0637 8.29061 14.1926C7.19014 12.6371 6.53481 10.7331 6.53481 8.67986C6.53481 7.62833 6.7141 6.62036 7.02322 5.67461C3.02938 6.43992 0 9.96783 0 14.205C0 16.4201 0.834625 18.436 2.19476 19.9667Z" fill="var(--fill-0, #DB5331)"/>
<path id="Vector_12" d="M9.8179 14.7275C10.8936 15.8412 12.2661 16.6625 13.8056 17.0732C13.9416 16.9176 14.0776 16.7621 14.2198 16.619C14.0961 16.1399 13.9972 15.6483 13.9477 15.1444C13.0389 14.8146 12.0683 14.6279 11.0482 14.6279C10.6278 14.6279 10.2198 14.6715 9.81172 14.7275H9.8179Z" fill="var(--fill-0, #DB5331)"/>
<path id="Vector_13" d="M9.16822 13.9683C9.7741 13.8439 10.4047 13.7754 11.0477 13.7754C12.043 13.7754 12.9951 13.931 13.8978 14.2172C13.8978 14.211 13.8978 14.2047 13.8978 14.1985C13.8978 12.2572 14.4789 10.4466 15.4743 8.94088C13.8978 6.86271 11.4186 5.51875 8.62417 5.51875C8.4016 5.51875 8.17904 5.53742 7.95647 5.54986C7.57934 6.5205 7.36914 7.57825 7.36914 8.67955C7.36914 10.6706 8.04302 12.4999 9.16822 13.9621V13.9683Z" fill="var(--fill-0, #DB5331)"/>
<path id="Vector_14" d="M11.0478 31.9937C12.5687 31.9937 13.9968 31.5955 15.2333 30.8987C12.952 29.1565 11.4744 26.4063 11.4744 23.314C11.4744 23.3077 11.4744 23.3015 11.4744 23.2953C10.5718 23.5815 9.61969 23.7371 8.62433 23.7371C6.33683 23.7371 4.23482 22.9158 2.59648 21.5531C2.47901 22.1193 2.41719 22.7104 2.41719 23.314C2.41719 28.0987 6.28738 32 11.0416 32L11.0478 31.9937Z" fill="var(--fill-0, #DB5331)"/>
<path id="Vector_15" d="M16 0C12.6738 0 9.78666 1.90395 8.35234 4.68521C8.44508 4.68521 8.53782 4.67276 8.63055 4.67276C11.6043 4.67276 14.2627 6.0665 16 8.23178C17.7372 6.0665 20.3957 4.67276 23.3694 4.67276C23.4621 4.67276 23.5549 4.68521 23.6476 4.68521C22.2071 1.90395 19.3199 0 15.9938 0H16Z" fill="var(--fill-0, #DB5331)"/>
<path id="Vector_16" d="M17.2491 18.1187C17.0389 18.5854 16.7977 19.0334 16.5195 19.4565C17.3232 20.5142 18.3681 21.3853 19.5675 21.9826C19.3387 20.508 18.7514 19.1578 17.8797 18.0254C17.6756 18.0689 17.4593 18.0938 17.2491 18.1249V18.1187Z" fill="var(--fill-0, #DB5331)"/>
<path id="Vector_17" d="M2.85078 20.6263C4.38402 22.0201 6.40567 22.8849 8.63133 22.8849C9.65143 22.8849 10.6221 22.6983 11.5309 22.3685C11.6978 20.6761 12.3099 19.1144 13.2434 17.7953C11.5247 17.2664 10.0162 16.2522 8.86627 14.9207C6.02854 15.6736 3.7596 17.8388 2.85696 20.6263H2.85078Z" fill="var(--fill-0, #DB5331)"/>
<path id="Vector_18" d="M16.5195 8.94735C17.5149 10.4531 18.096 12.2637 18.096 14.205C18.096 14.2112 18.096 14.2174 18.096 14.2237C18.9987 13.9374 19.9508 13.7819 20.9461 13.7819C21.5891 13.7819 22.2197 13.8503 22.8256 13.9748C23.9508 12.5064 24.6247 10.6771 24.6247 8.69225C24.6247 7.59095 24.4083 6.5332 24.0373 5.56256C23.8148 5.54389 23.5922 5.53145 23.3696 5.53145C20.5752 5.53145 18.096 6.88163 16.5195 8.9598V8.94735Z" fill="var(--fill-0, #DB5331)"/>
<path id="Vector_19" d="M29.1497 20.6263C28.2471 17.8388 25.9782 15.6736 23.1404 14.9207C21.9905 16.2522 20.482 17.2664 18.7633 17.7953C19.6968 19.1144 20.3089 20.6761 20.4758 22.3685C21.3846 22.6983 22.3553 22.8849 23.3754 22.8849C25.601 22.8849 27.6227 22.0263 29.1559 20.6263H29.1497Z" fill="var(--fill-0, #DB5331)"/>
</g>
</svg>
