<svg width="64" height="64" viewBox="0 0 64 64" fill="none" xmlns="http://www.w3.org/2000/svg">
<path d="M54 28H52V26C52.3714 26 52.7355 25.8966 53.0515 25.7013C53.3674 25.506 53.6227 25.2266 53.7889 24.8944C53.955 24.5622 54.0253 24.1903 53.9919 23.8204C53.9586 23.4505 53.8229 23.0971 53.6 22.8C53.36 22.48 48.46 16.1 37.6 14.42C37.8986 13.6495 38.0347 12.8256 38 12C38 10.4087 37.3679 8.88258 36.2426 7.75736C35.1174 6.63214 33.5913 6 32 6C30.4087 6 28.8826 6.63214 27.7574 7.75736C26.6321 8.88258 26 10.4087 26 12C25.9969 12.8326 26.1672 13.6568 26.5 14.42C15.54 16.1 10.64 22.42 10.5 22.8C10.2963 23.0879 10.1724 23.4245 10.1408 23.7758C10.1092 24.127 10.171 24.4804 10.32 24.8C10.4644 25.1339 10.6972 25.4221 10.9932 25.6335C11.2892 25.845 11.6373 25.9717 12 26V28H10C8.4087 28 6.88258 28.6321 5.75736 29.7574C4.63214 30.8826 4 32.4087 4 34C4 35.5913 4.63214 37.1174 5.75736 38.2426C6.88258 39.3679 8.4087 40 10 40H12V52C12 53.5913 12.6321 55.1174 13.7574 56.2426C14.8826 57.3679 16.4087 58 18 58H46C47.5913 58 49.1174 57.3679 50.2426 56.2426C51.3679 55.1174 52 53.5913 52 52V40H54C55.5913 40 57.1174 39.3679 58.2426 38.2426C59.3679 37.1174 60 35.5913 60 34C60 32.4087 59.3679 30.8826 58.2426 29.7574C57.1174 28.6321 55.5913 28 54 28ZM30 12C30 11.6044 30.1173 11.2178 30.3371 10.8889C30.5568 10.56 30.8692 10.3036 31.2346 10.1522C31.6001 10.0009 32.0022 9.96126 32.3902 10.0384C32.7781 10.1156 33.1345 10.3061 33.4142 10.5858C33.6939 10.8655 33.8844 11.2219 33.9616 11.6098C34.0387 11.9978 33.9991 12.3999 33.8478 12.7654C33.6964 13.1308 33.44 13.4432 33.1111 13.6629C32.7822 13.8827 32.3956 14 32 14C31.4696 14 30.9609 13.7893 30.5858 13.4142C30.2107 13.0391 30 12.5304 30 12ZM32 18C37.1867 17.8586 42.3 19.25 46.7 22H17.32C21.7152 19.256 26.8203 17.865 32 18ZM10 36C9.46957 36 8.96086 35.7893 8.58579 35.4142C8.21071 35.0391 8 34.5304 8 34C8 33.4696 8.21071 32.9609 8.58579 32.5858C8.96086 32.2107 9.46957 32 10 32H12V36H10ZM48 52C48 52.5304 47.7893 53.0391 47.4142 53.4142C47.0391 53.7893 46.5304 54 46 54H18C17.4696 54 16.9609 53.7893 16.5858 53.4142C16.2107 53.0391 16 52.5304 16 52V26H48V52ZM54 36H52V32H54C54.5304 32 55.0391 32.2107 55.4142 32.5858C55.7893 32.9609 56 33.4696 56 34C56 34.5304 55.7893 35.0391 55.4142 35.4142C55.0391 35.7893 54.5304 36 54 36Z" fill="#AC3A09"/>
</svg>
