<svg width="1440" height="275" viewBox="0 0 1440 275" fill="none" xmlns="http://www.w3.org/2000/svg">
<g clip-path="url(#clip0_541_1186)">
<path d="M873.068 6.61739L-104.001 268.422L-95.719 299.332L881.35 37.527L873.068 6.61739Z" fill="#1C1C1C"/>
<path d="M871.291 39.371C870.013 33.4436 868.751 27.4812 867.017 21.6605C866.085 18.5511 865.542 15.5073 864.926 12.3285C864.713 11.2091 864.396 10.1175 864.044 9.03534L861.09 9.82694C862.104 14.4006 862.871 19.025 864.145 23.5448C864.977 26.4645 865.924 29.3531 866.312 32.3763C866.7 35.353 867.675 38.1106 868.186 41.0387L871.43 40.1696C871.372 39.9065 871.31 39.6289 871.252 39.3658L871.291 39.371Z" fill="white"/>
<path d="M877.067 15.8869C877.973 19.9169 878.836 23.9272 879.966 27.9126C880.844 31.0056 881.607 34.1297 882.358 37.2568L882.764 37.1481L877.067 15.8869Z" fill="white"/>
<path d="M854.118 44.1429C852.923 41.8159 852.284 39.3862 851.839 36.8429C850.928 31.6841 849.67 26.7112 848.212 21.6839C847.453 19.0851 846.671 16.4925 845.901 13.8968L841.696 15.0236C843.894 22.4383 846.296 29.7826 847.633 37.4125C848.063 39.8516 848.601 42.2772 849.688 44.5249C849.893 44.9654 850.144 45.3934 850.391 45.8071L854.423 44.7268C854.319 44.5225 854.241 44.3265 854.137 44.1223L854.118 44.1429Z" fill="white"/>
<path d="M776.874 62.8742C773.968 53.5129 771.055 44.1227 768.257 34.7014L764.805 35.6265C767.946 45.8224 771.069 56.039 774.164 66.2474L777.651 65.313C777.396 64.499 777.129 63.6882 776.874 62.8742Z" fill="white"/>
<path d="M705.012 55.4873C704.714 54.2822 704.535 53.0606 704.376 51.8183L700.287 52.9141C700.492 53.9582 700.701 55.0168 700.941 56.0516C703.121 65.3908 705.76 74.6377 708.326 83.8889L712.334 82.8148C711.518 79.7672 710.697 76.7051 709.881 73.6575C708.259 67.6056 706.506 61.5733 705.012 55.4873Z" fill="white"/>
<path d="M784.048 30.4706L781.546 31.1411C783.051 35.8774 784.448 40.6273 785.114 45.5262C785.797 50.5294 787.364 55.2647 788.853 60.0826C789.062 60.7697 789.225 61.4692 789.411 62.1625L792.11 61.4392C791.924 60.7459 791.762 60.0464 791.553 59.3593C788.612 49.8215 786.865 40.0569 784.052 30.485L784.048 30.4706Z" fill="white"/>
<path d="M799.676 26.2831L797.058 26.9847C799.492 35.9769 801.614 45.0065 804.284 53.9511C804.671 55.2562 805.069 56.5582 805.456 57.8632L808.051 57.1679C805.164 46.9037 802.459 36.5753 799.676 26.2831Z" fill="white"/>
<path d="M724.584 57.674C723.713 54.1455 722.533 50.7153 721.593 47.2055L719.032 47.8915C721.572 58.2489 723.813 68.7015 726.144 79.1147L729.087 78.3262C728.53 76.1534 727.988 73.992 727.43 71.8192C726.23 67.1559 725.733 62.3353 724.584 57.674Z" fill="white"/>
<path d="M814.633 22.2754L812.235 22.918C813.861 29.9595 815.877 36.881 817.808 43.8563C818.721 47.1721 819.588 50.5004 820.443 53.8318L823.247 53.0805C820.879 45.2161 818.646 37.3 816.382 29.4076C815.709 27.0337 815.136 24.6639 814.629 22.2609L814.633 22.2754Z" fill="white"/>
<path d="M757.166 59.0217C755.723 54.0986 754.183 49.1858 752.856 44.2316C752.407 42.5561 752.023 40.8476 751.667 39.1473L747.96 40.1406C748.328 41.8378 748.699 43.5495 749.148 45.225C750.476 50.1792 752.016 55.0919 753.459 60.0151C754.519 63.6476 755.954 67.1953 756.984 70.8516L760.702 69.8551C759.661 66.2019 758.242 62.6656 757.178 59.0186L757.166 59.0217Z" fill="white"/>
<path d="M739.269 52.0056C738.425 49.0427 737.794 46.0382 737.093 43.0524L733.838 43.9247C734.577 47.1014 735.235 50.2998 736.149 53.4299C737.43 57.8393 738.818 62.1423 739.659 66.6697C740.174 69.473 741.014 72.1894 741.83 74.9119L745.306 73.9807C743.432 66.6184 741.351 59.312 739.269 52.0056Z" fill="white"/>
<path d="M834.695 24.7178C834.126 22.2695 833.545 19.8243 832.949 17.3678L829.566 18.2743C831.575 26.1885 833.345 34.1359 834.971 42.1526C835.471 44.6195 835.947 47.0926 836.412 49.5688L839.795 48.6624C838.172 40.6602 836.538 32.661 834.707 24.7147L834.695 24.7178Z" fill="white"/>
<path d="M689.9 62.8029C689.389 60.5713 688.935 58.3242 688.482 56.077L684.601 57.1169C685.054 59.3641 685.508 61.6112 686.019 63.8428C687.227 69.0923 688.894 74.2495 690.345 79.4337C691.15 82.2987 691.982 85.1719 692.814 88.0452L696.649 87.0177C694.273 78.985 691.785 70.9515 689.9 62.8029Z" fill="white"/>
<path d="M570.464 87.7001L567.8 88.4141C567.834 88.5441 567.869 88.6741 567.908 88.8185C569.467 94.0357 570.98 99.2652 572.598 104.467C574.099 109.328 574.785 114.392 576.221 119.286L578.943 118.557C577.577 113.644 576.844 108.592 575.355 103.728C573.73 98.4047 572.004 93.0772 570.453 87.7032L570.464 87.7001Z" fill="white"/>
<path d="M516.691 134.386C515.413 128.459 514.151 122.496 512.418 116.676C511.485 113.566 510.943 110.522 510.327 107.344C510.114 106.224 509.796 105.133 509.444 104.05L506.49 104.842C507.505 109.416 508.272 114.04 509.545 118.56C510.377 121.48 511.325 124.368 511.713 127.391C512.101 130.368 513.075 133.126 513.587 136.054L516.831 135.185C516.773 134.922 516.711 134.644 516.653 134.381L516.691 134.386Z" fill="white"/>
<path d="M524.016 108.103C523.481 105.599 522.819 103.13 522.142 100.648L519.929 101.241C520.661 103.692 521.373 106.164 521.953 108.656C523.061 113.437 524.025 118.194 525.368 122.928C526.246 126.021 527.009 129.145 527.76 132.272L530.448 131.552C529.492 128.681 528.44 125.82 527.577 122.924C526.095 117.996 525.077 113.129 524.016 108.103Z" fill="white"/>
<path d="M597.641 112.804C596.345 107.965 595.801 103.018 594.246 98.2331C592.718 93.503 590.973 88.8463 590.163 83.9237C590.086 83.4491 589.958 82.9724 589.881 82.4978L585.965 83.547C586.054 84.0186 586.17 84.4983 586.248 84.9729C587.069 89.8924 588.814 94.5491 590.342 99.2793C591.835 103.879 592.425 108.629 593.601 113.298C593.71 113.703 593.822 114.122 593.93 114.526L597.823 113.483C597.761 113.252 597.699 113.021 597.637 112.79L597.641 112.804Z" fill="white"/>
<path d="M605.117 88.4772C604.443 85.2675 603.812 82.1237 602.995 78.9832L599.392 79.9487C600.209 83.0892 600.851 86.2298 601.514 89.4426C602.524 94.2805 604.304 98.9743 605.735 103.715C606.459 106.091 606.981 108.505 607.489 110.908L611.069 109.949C610.561 107.546 610.039 105.132 609.327 102.753C607.899 98.0265 606.131 93.3295 605.105 88.4803L605.117 88.4772Z" fill="white"/>
<path d="M670.259 68.2825C669.647 66.0003 669.039 63.7327 668.428 61.4506L664.454 62.5153C666.401 69.7805 668.348 77.0457 670.306 84.3078C671.115 87.3266 671.781 90.4146 672.586 93.4653L676.513 92.4129C675.724 89.3736 675.069 86.2825 674.256 83.2493C672.921 78.2662 671.582 73.2687 670.247 68.2856L670.259 68.2825Z" fill="white"/>
<path d="M652.721 70.2109C652.222 68.812 651.719 67.4451 651.213 66.0638L648.687 66.7405C649.113 67.9578 649.527 69.1783 649.956 70.41C651.635 75.0998 651.537 80.2037 652.725 85.0094C653.778 89.3096 654.997 93.5807 656.247 97.8281L659.294 97.0117C658.021 92.7705 656.547 88.5677 655.483 84.2706C654.341 79.6382 654.338 74.716 652.71 70.214L652.721 70.2109Z" fill="white"/>
<path d="M641.876 98.6906C640.576 93.9303 640.136 89.0013 638.875 84.2462C638.221 81.8052 637.37 79.417 636.727 76.9729C636.154 74.8352 636.115 72.6012 635.731 70.4283C635.712 70.3561 635.696 70.2983 635.677 70.2261L632.085 71.1884C633.22 75.8383 634.331 80.4945 635.573 85.1309C636.85 89.8973 637.274 94.8151 638.678 99.5473C638.953 100.48 639.247 101.392 639.522 102.325L642.696 101.474C642.422 100.541 642.139 99.6263 641.876 98.6906Z" fill="white"/>
<path d="M499.519 139.158C498.324 136.831 497.685 134.401 497.24 131.858C496.329 126.699 495.071 121.726 493.613 116.699C492.854 114.1 492.073 111.507 491.303 108.911L487.097 110.038C489.295 117.453 491.698 124.797 493.034 132.427C493.464 134.866 494.002 137.292 495.089 139.54C495.294 139.98 495.545 140.408 495.793 140.822L499.824 139.741C499.72 139.537 499.642 139.341 499.538 139.137L499.519 139.158Z" fill="white"/>
<path d="M621.044 85.6338C620.3 82.0247 619.514 78.3961 618.705 74.7737L615.067 75.7484C617.053 83.7153 619.023 91.6708 620.692 99.7071C621.188 102.113 621.792 104.506 622.434 106.903L626.13 105.913C624.211 99.2133 622.45 92.4556 621.032 85.6369L621.044 85.6338Z" fill="white"/>
<path d="M556.78 96.2275C556.544 94.6963 556.219 93.158 555.831 91.6207L552.46 92.5241C554.105 98.4769 555.445 104.542 556.997 110.52C558.123 114.863 559.396 119.15 560.65 123.459L563.627 122.661C560.965 113.931 558.176 105.235 556.769 96.2306L556.78 96.2275Z" fill="white"/>
<path d="M422.275 157.888C419.369 148.527 416.456 139.137 413.658 129.716L410.206 130.641C413.348 140.837 416.47 151.053 419.566 161.262L423.053 160.327C422.797 159.513 422.53 158.702 422.275 157.888Z" fill="white"/>
<path d="M350.403 150.505C350.104 149.3 349.926 148.079 349.767 146.836L345.678 147.932C345.883 148.976 346.092 150.035 346.332 151.07C348.512 160.409 351.151 169.656 353.716 178.907L357.725 177.833C356.908 174.785 356.088 171.723 355.271 168.676C353.65 162.624 351.897 156.591 350.403 150.505Z" fill="white"/>
<path d="M429.45 125.485L426.948 126.155C428.453 130.892 429.838 135.645 430.517 140.54C431.199 145.544 432.766 150.279 434.256 155.097C434.465 155.784 434.627 156.483 434.813 157.177L437.512 156.453C437.327 155.76 437.164 155.061 436.955 154.373C434.015 144.836 432.267 135.071 429.454 125.499L429.45 125.485Z" fill="white"/>
<path d="M445.067 121.3L442.449 122.002C444.871 130.997 447.004 140.023 449.674 148.968C450.061 150.273 450.46 151.575 450.847 152.88L453.442 152.185C450.555 141.921 447.849 131.592 445.067 121.3Z" fill="white"/>
<path d="M541.656 110.73C540.24 106 539.689 101.07 538.257 96.3298L535.095 97.1773C536.492 101.927 537.008 106.866 538.389 111.605C539.755 116.286 541.117 120.952 542.483 125.633C542.731 126.464 542.921 127.311 543.11 128.158L546.516 127.246C546.315 126.402 546.114 125.558 545.866 124.726C544.465 120.055 543.057 115.401 541.656 110.73Z" fill="white"/>
<path d="M369.974 152.692C369.103 149.163 367.923 145.733 366.982 142.223L364.422 142.909C366.961 153.267 369.203 163.719 371.534 174.132L374.477 173.344C373.931 171.168 373.377 169.01 372.82 166.837C371.62 162.174 371.123 157.353 369.974 152.692Z" fill="white"/>
<path d="M460.034 117.29L457.636 117.932C459.262 124.974 461.278 131.895 463.209 138.87C464.123 142.186 464.99 145.515 465.845 148.846L468.648 148.095C466.28 140.23 464.048 132.314 461.784 124.422C461.111 122.048 460.538 119.678 460.03 117.275L460.034 117.29Z" fill="white"/>
<path d="M402.557 154.039C401.114 149.116 399.574 144.203 398.246 139.249C397.797 137.573 397.414 135.865 397.058 134.164L393.351 135.158C393.718 136.855 394.09 138.567 394.539 140.242C395.867 145.196 397.406 150.109 398.85 155.032C399.91 158.665 401.345 162.212 402.374 165.869L406.093 164.872C405.052 161.219 403.633 157.683 402.569 154.036L402.557 154.039Z" fill="white"/>
<path d="M384.67 147.02C383.826 144.057 383.195 141.052 382.494 138.067L379.239 138.939C379.979 142.116 380.637 145.314 381.55 148.444C382.831 152.853 384.22 157.157 385.06 161.684C385.576 164.487 386.415 167.204 387.232 169.926L390.707 168.995C388.834 161.633 386.752 154.326 384.67 147.02Z" fill="white"/>
<path d="M480.096 119.732C479.527 117.284 478.947 114.838 478.351 112.382L474.968 113.288C476.977 121.203 478.746 129.15 480.373 137.167C480.872 139.634 481.349 142.107 481.813 144.583L485.196 143.677C483.574 135.674 481.939 127.675 480.108 119.729L480.096 119.732Z" fill="white"/>
<path d="M335.289 157.821C334.778 155.589 334.325 153.342 333.872 151.095L329.991 152.135C330.444 154.382 330.897 156.629 331.408 158.861C332.616 164.11 334.284 169.268 335.735 174.452C336.54 177.317 337.372 180.19 338.204 183.063L342.038 182.036C339.662 174.003 337.175 165.97 335.289 157.821Z" fill="white"/>
<path d="M215.866 182.714L213.201 183.428C213.236 183.558 213.271 183.688 213.309 183.833C214.869 189.05 216.382 194.279 217.999 199.481C219.5 204.342 220.187 209.406 221.622 214.301L224.345 213.571C222.979 208.658 222.246 203.607 220.756 198.742C219.131 193.419 217.406 188.091 215.854 182.717L215.866 182.714Z" fill="white"/>
<path d="M162.093 229.4C160.815 223.473 159.552 217.511 157.819 211.69C156.898 208.577 156.344 205.537 155.728 202.358C155.515 201.238 155.198 200.147 154.846 199.065L151.892 199.856C152.906 204.43 153.673 209.054 154.946 213.574C155.778 216.494 156.726 219.382 157.114 222.406C157.502 225.382 158.477 228.14 158.988 231.068L162.232 230.199C162.174 229.936 162.112 229.658 162.054 229.395L162.093 229.4Z" fill="white"/>
<path d="M169.417 203.118C168.882 200.614 168.221 198.144 167.543 195.662L165.331 196.255C166.062 198.707 166.774 201.179 167.355 203.67C168.462 208.451 169.426 213.209 170.769 217.942C171.647 221.035 172.41 224.159 173.161 227.286L175.849 226.566C174.893 223.695 173.841 220.834 172.978 217.938C171.496 213.01 170.478 208.143 169.417 203.118Z" fill="white"/>
<path d="M243.031 207.821C241.735 202.983 241.191 198.035 239.636 193.25C238.108 188.52 236.363 183.863 235.553 178.941C235.476 178.466 235.348 177.99 235.271 177.515L231.355 178.564C231.444 179.036 231.56 179.515 231.638 179.99C232.459 184.91 234.203 189.566 235.732 194.296C237.225 198.896 237.815 203.646 238.991 208.315C239.1 208.72 239.212 209.139 239.32 209.543L243.213 208.5C243.151 208.269 243.089 208.038 243.027 207.807L243.031 207.821Z" fill="white"/>
<path d="M250.506 183.495C249.833 180.286 249.201 177.142 248.385 174.001L244.782 174.967C245.598 178.107 246.241 181.248 246.904 184.461C247.914 189.299 249.693 193.992 251.125 198.733C251.849 201.109 252.371 203.523 252.879 205.926L256.458 204.967C255.951 202.564 255.428 200.15 254.717 197.771C253.289 193.045 251.521 188.348 250.495 183.498L250.506 183.495Z" fill="white"/>
<path d="M315.66 163.297C315.048 161.015 314.441 158.747 313.829 156.465L309.856 157.53C311.802 164.795 313.749 172.06 315.707 179.322C316.516 182.341 317.182 185.429 317.987 188.48L321.915 187.428C321.125 184.388 320.459 181.3 319.658 178.264C318.323 173.281 316.983 168.283 315.648 163.3L315.66 163.297Z" fill="white"/>
<path d="M298.122 165.225C297.623 163.826 297.12 162.459 296.613 161.078L294.088 161.755C294.513 162.972 294.927 164.193 295.368 165.421C297.047 170.111 296.949 175.215 298.138 180.021C299.191 184.321 300.41 188.592 301.66 192.839L304.706 192.023C303.433 187.782 301.96 183.579 300.895 179.282C299.753 174.649 299.75 169.727 298.122 165.225Z" fill="white"/>
<path d="M287.277 193.706C285.977 188.945 285.537 184.016 284.276 179.261C283.622 176.82 282.771 174.432 282.128 171.988C281.555 169.85 281.516 167.616 281.132 165.443C281.113 165.371 281.097 165.313 281.078 165.241L277.486 166.204C278.621 170.853 279.732 175.51 280.974 180.146C282.251 184.912 282.675 189.83 284.079 194.562C284.354 195.495 284.648 196.407 284.923 197.34L288.097 196.489C287.823 195.557 287.54 194.641 287.277 193.706Z" fill="white"/>
<path d="M266.445 180.649C265.702 177.04 264.916 173.411 264.107 169.789L260.469 170.764C262.455 178.73 264.425 186.686 266.094 194.722C266.59 197.128 267.193 199.521 267.836 201.918L271.531 200.928C269.612 194.228 267.851 187.471 266.434 180.652L266.445 180.649Z" fill="white"/>
<path d="M202.171 191.245C201.934 189.713 201.609 188.175 201.222 186.638L197.851 187.541C199.495 193.494 200.835 199.56 202.387 205.537C203.514 209.88 204.787 214.167 206.04 218.476L209.018 217.678C206.356 208.948 203.566 200.252 202.159 191.248L202.171 191.245Z" fill="white"/>
<path d="M187.058 205.744C185.641 201.015 185.09 196.085 183.659 191.344L180.496 192.191C181.893 196.941 182.409 201.881 183.791 206.619C185.157 211.3 186.519 215.966 187.885 220.647C188.132 221.478 188.322 222.325 188.512 223.172L191.918 222.26C191.716 221.416 191.515 220.572 191.267 219.74C189.867 215.069 188.458 210.415 187.058 205.744Z" fill="white"/>
<path d="M144.909 234.176C143.714 231.849 143.075 229.419 142.63 226.876C141.719 221.717 140.461 216.744 139.002 211.717C138.244 209.118 137.462 206.525 136.692 203.929L132.487 205.056C134.685 212.471 137.087 219.815 138.424 227.445C138.854 229.884 139.392 232.31 140.479 234.558C140.684 234.998 140.935 235.426 141.182 235.84L145.214 234.759C145.11 234.555 145.032 234.359 144.928 234.155L144.909 234.176Z" fill="white"/>
<path d="M67.6773 252.903C64.7716 243.542 61.8581 234.152 59.0605 224.731L55.6082 225.656C58.7499 235.852 61.8724 246.068 64.9678 256.277L68.4549 255.342C68.1996 254.528 67.9326 253.717 67.6773 252.903Z" fill="white"/>
<path d="M-4.19696 245.519C-4.49502 244.314 -4.67335 243.093 -4.83239 241.851L-8.92195 242.946C-8.71668 243.99 -8.50753 245.049 -8.26751 246.084C-6.08793 255.423 -3.44879 264.67 -0.883026 273.921L3.12544 272.847C2.30883 269.799 1.48835 266.737 0.671738 263.69C-0.949873 257.638 -2.70279 251.606 -4.19696 245.519Z" fill="white"/>
<path d="M74.8506 220.5L72.3482 221.17C73.8532 225.907 75.2385 230.66 75.9171 235.556C76.5996 240.559 78.1664 245.294 79.656 250.112C79.865 250.799 80.0276 251.498 80.2133 252.192L82.9127 251.468C82.7269 250.775 82.5643 250.076 82.3554 249.389C79.4148 239.851 77.6676 230.086 74.8545 220.514L74.8506 220.5Z" fill="white"/>
<path d="M90.4675 216.315L87.8493 217.017C90.2836 226.009 92.405 235.039 95.0749 243.983C95.4619 245.288 95.8604 246.59 96.2473 247.895L98.8424 247.2C95.9555 236.936 93.2501 226.608 90.4675 216.315Z" fill="white"/>
<path d="M15.3748 247.706C14.5038 244.177 13.324 240.747 12.3835 237.237L9.82318 237.923C12.3625 248.281 14.6045 258.733 16.9353 269.146L19.8779 268.358C19.3206 266.185 18.7787 264.024 18.2213 261.851C17.0214 257.188 16.5244 252.367 15.3748 247.706Z" fill="white"/>
<path d="M105.435 212.304L103.037 212.947C104.663 219.988 106.679 226.91 108.61 233.885C109.524 237.201 110.391 240.529 111.246 243.861L114.05 243.109C111.682 235.245 109.449 227.329 107.185 219.436C106.512 217.063 105.939 214.693 105.431 212.29L105.435 212.304Z" fill="white"/>
<path d="M47.9582 249.053C46.5149 244.13 44.975 239.217 43.6475 234.263C43.1986 232.587 42.8153 230.879 42.459 229.179L38.7518 230.172C39.1196 231.869 39.4914 233.581 39.9403 235.256C41.2678 240.21 42.8076 245.123 44.251 250.046C45.3112 253.679 46.7461 257.227 47.7755 260.883L51.4943 259.886C50.4533 256.233 49.0339 252.697 47.9698 249.05L47.9582 249.053Z" fill="white"/>
<path d="M30.0712 242.034C29.2276 239.071 28.5964 236.067 27.8957 233.081L24.6403 233.953C25.3797 237.13 26.0381 240.328 26.9513 243.458C28.2321 247.868 29.621 252.171 30.4616 256.698C30.9769 259.501 31.8165 262.218 32.6329 264.94L36.1084 264.009C34.2351 256.647 32.1532 249.34 30.0712 242.034Z" fill="white"/>
<path d="M125.498 214.746C124.929 212.298 124.348 209.853 123.752 207.396L120.369 208.303C122.378 216.217 124.147 224.164 125.774 232.181C126.273 234.648 126.75 237.121 127.215 239.597L130.597 238.691C128.975 230.688 127.341 222.689 125.509 214.743L125.498 214.746Z" fill="white"/>
</g>
<g clip-path="url(#clip1_541_1186)">
<path d="M1536.07 292.716L559 30.9106L567.282 0.00101852L1544.35 261.806L1536.07 292.716Z" fill="#1C1C1C"/>
<path d="M1439.87 236.458C1436.97 245.819 1434.06 255.209 1431.26 264.631L1427.81 263.706C1430.95 253.51 1434.07 243.293 1437.17 233.085L1440.65 234.019C1440.4 234.833 1440.13 235.644 1439.87 236.458Z" fill="white"/>
<path d="M1368.01 243.845C1367.71 245.05 1367.54 246.272 1367.38 247.514L1363.29 246.418C1363.49 245.374 1363.7 244.316 1363.94 243.281C1366.12 233.942 1368.76 224.695 1371.33 215.444L1375.33 216.518C1374.52 219.565 1373.7 222.627 1372.88 225.675C1371.26 231.727 1369.51 237.759 1368.01 243.845Z" fill="white"/>
<path d="M1387.58 241.658C1386.71 245.187 1385.53 248.617 1384.59 252.127L1382.03 251.44C1384.57 241.083 1386.81 230.631 1389.14 220.217L1392.09 221.006C1391.53 223.179 1390.99 225.34 1390.43 227.513C1389.23 232.176 1388.73 236.997 1387.58 241.658Z" fill="white"/>
<path d="M1420.17 240.311C1418.72 245.234 1417.18 250.147 1415.86 255.101C1415.41 256.776 1415.02 258.485 1414.67 260.185L1410.96 259.192C1411.33 257.495 1411.7 255.783 1412.15 254.108C1413.48 249.153 1415.02 244.241 1416.46 239.317C1417.52 235.685 1418.96 232.137 1419.98 228.481L1423.7 229.477C1422.66 233.131 1421.24 236.667 1420.18 240.314L1420.17 240.311Z" fill="white"/>
<path d="M1402.27 247.327C1401.43 250.29 1400.79 253.294 1400.09 256.28L1396.84 255.408C1397.58 252.231 1398.24 249.033 1399.15 245.903C1400.43 241.493 1401.82 237.19 1402.66 232.663C1403.18 229.86 1404.01 227.143 1404.83 224.421L1408.31 225.352C1406.43 232.714 1404.35 240.02 1402.27 247.327Z" fill="white"/>
<path d="M1352.9 236.529C1352.39 238.76 1351.94 241.007 1351.48 243.255L1347.6 242.215C1348.05 239.967 1348.51 237.72 1349.02 235.489C1350.23 230.239 1351.89 225.082 1353.35 219.898C1354.15 217.033 1354.98 214.16 1355.81 211.286L1359.65 212.314C1357.27 220.346 1354.78 228.38 1352.9 236.529Z" fill="white"/>
<path d="M1233.46 211.632L1230.8 210.918C1230.83 210.788 1230.87 210.658 1230.91 210.514C1232.47 205.296 1233.98 200.067 1235.6 194.865C1237.1 190.004 1237.79 184.94 1239.22 180.046L1241.94 180.775C1240.58 185.688 1239.84 190.74 1238.35 195.604C1236.73 200.927 1235 206.255 1233.45 211.629L1233.46 211.632Z" fill="white"/>
<path d="M1179.69 164.947C1178.41 170.874 1177.15 176.837 1175.42 182.657C1174.49 185.767 1173.94 188.811 1173.33 191.989C1173.11 193.109 1172.8 194.2 1172.45 195.283L1169.49 194.491C1170.51 189.917 1171.27 185.293 1172.55 180.773C1173.38 177.853 1174.33 174.965 1174.71 171.942C1175.1 168.965 1176.08 166.207 1176.59 163.279L1179.83 164.148C1179.77 164.411 1179.71 164.689 1179.65 164.952L1179.69 164.947Z" fill="white"/>
<path d="M1187.02 191.23C1186.48 193.734 1185.82 196.203 1185.14 198.685L1182.93 198.092C1183.66 195.641 1184.37 193.169 1184.95 190.677C1186.06 185.896 1187.02 181.139 1188.37 176.405C1189.25 173.312 1190.01 170.188 1190.76 167.061L1193.45 167.781C1192.49 170.652 1191.44 173.513 1190.58 176.409C1189.09 181.337 1188.08 186.204 1187.02 191.23Z" fill="white"/>
<path d="M1260.64 186.529C1259.34 191.368 1258.8 196.315 1257.25 201.1C1255.72 205.83 1253.97 210.487 1253.16 215.409C1253.09 215.884 1252.96 216.361 1252.88 216.835L1248.96 215.786C1249.05 215.314 1249.17 214.835 1249.25 214.36C1250.07 209.441 1251.81 204.784 1253.34 200.054C1254.84 195.454 1255.42 190.704 1256.6 186.035C1256.71 185.63 1256.82 185.211 1256.93 184.807L1260.82 185.85C1260.76 186.081 1260.7 186.312 1260.64 186.543L1260.64 186.529Z" fill="white"/>
<path d="M1268.12 210.854C1267.44 214.064 1266.81 217.208 1266 220.348L1262.39 219.383C1263.21 216.242 1263.85 213.102 1264.51 209.889C1265.53 205.051 1267.3 200.357 1268.74 195.617C1269.46 193.241 1269.98 190.827 1270.49 188.424L1274.07 189.383C1273.56 191.786 1273.04 194.2 1272.33 196.579C1270.9 201.305 1269.13 206.002 1268.11 210.851L1268.12 210.854Z" fill="white"/>
<path d="M1333.26 231.05C1332.65 233.332 1332.04 235.6 1331.43 237.882L1327.45 236.817C1329.4 229.552 1331.35 222.287 1333.31 215.025C1334.12 212.006 1334.78 208.918 1335.59 205.867L1339.51 206.92C1338.72 209.959 1338.07 213.05 1337.26 216.083C1335.92 221.066 1334.58 226.064 1333.25 231.047L1333.26 231.05Z" fill="white"/>
<path d="M1315.72 229.122C1315.22 230.521 1314.72 231.887 1314.21 233.269L1311.69 232.592C1312.11 231.375 1312.53 230.154 1312.96 228.922C1314.63 224.233 1314.54 219.129 1315.73 214.323C1316.78 210.023 1318 205.752 1319.25 201.504L1322.29 202.321C1321.02 206.562 1319.55 210.765 1318.48 215.062C1317.34 219.694 1317.34 224.616 1315.71 229.119L1315.72 229.122Z" fill="white"/>
<path d="M1304.88 200.641C1303.58 205.401 1303.14 210.33 1301.87 215.085C1301.22 217.526 1300.37 219.915 1299.73 222.359C1299.15 224.496 1299.11 226.73 1298.73 228.903C1298.71 228.975 1298.7 229.033 1298.68 229.105L1295.09 228.143C1296.22 223.493 1297.33 218.837 1298.57 214.201C1299.85 209.434 1300.27 204.516 1301.68 199.784C1301.95 198.852 1302.25 197.94 1302.52 197.007L1305.7 197.858C1305.42 198.79 1305.14 199.705 1304.88 200.641Z" fill="white"/>
<path d="M1162.52 160.174C1161.32 162.502 1160.69 164.931 1160.24 167.474C1159.33 172.633 1158.07 177.606 1156.61 182.634C1155.85 185.232 1155.07 187.825 1154.3 190.421L1150.1 189.294C1152.3 181.879 1154.7 174.535 1156.03 166.905C1156.46 164.466 1157 162.04 1158.09 159.792C1158.29 159.352 1158.55 158.924 1158.79 158.51L1162.82 159.591C1162.72 159.795 1162.64 159.991 1162.54 160.195L1162.52 160.174Z" fill="white"/>
<path d="M1284.04 213.698C1283.3 217.307 1282.51 220.935 1281.71 224.558L1278.07 223.583C1280.05 215.616 1282.02 207.661 1283.69 199.624C1284.19 197.218 1284.79 194.826 1285.43 192.428L1289.13 193.419C1287.21 200.118 1285.45 206.876 1284.03 213.695L1284.04 213.698Z" fill="white"/>
<path d="M1219.78 203.105C1219.54 204.636 1219.22 206.175 1218.83 207.712L1215.46 206.808C1217.11 200.856 1218.45 194.79 1220 188.812C1221.12 184.47 1222.4 180.182 1223.65 175.874L1226.63 176.672C1223.97 185.402 1221.18 194.098 1219.77 203.102L1219.78 203.105Z" fill="white"/>
<path d="M1085.28 141.444C1082.37 150.805 1079.46 160.195 1076.66 169.616L1073.21 168.691C1076.35 158.495 1079.47 148.279 1082.57 138.07L1086.05 139.005C1085.8 139.819 1085.53 140.63 1085.28 141.444Z" fill="white"/>
<path d="M1013.4 148.827C1013.1 150.032 1012.93 151.254 1012.77 152.496L1008.68 151.4C1008.88 150.356 1009.09 149.298 1009.33 148.263C1011.51 138.924 1014.15 129.677 1016.72 120.426L1020.72 121.5C1019.91 124.547 1019.09 127.609 1018.27 130.657C1016.65 136.709 1014.9 142.741 1013.4 148.827Z" fill="white"/>
<path d="M1092.45 173.847L1089.95 173.177C1091.45 168.44 1092.84 163.687 1093.52 158.792C1094.2 153.788 1095.77 149.053 1097.25 144.235C1097.46 143.548 1097.63 142.849 1097.81 142.155L1100.51 142.879C1100.33 143.572 1100.16 144.271 1099.95 144.959C1097.01 154.496 1095.27 164.261 1092.45 173.833L1092.45 173.847Z" fill="white"/>
<path d="M1108.07 178.032L1105.45 177.33C1107.87 168.335 1110 159.308 1112.67 150.363C1113.06 149.058 1113.46 147.756 1113.85 146.451L1116.44 147.147C1113.55 157.411 1110.85 167.739 1108.07 178.032Z" fill="white"/>
<path d="M1204.66 188.602C1203.24 193.332 1202.69 198.262 1201.26 203.002L1198.09 202.155C1199.49 197.405 1200.01 192.466 1201.39 187.727C1202.76 183.046 1204.12 178.38 1205.48 173.699C1205.73 172.868 1205.92 172.021 1206.11 171.174L1209.52 172.086C1209.31 172.93 1209.11 173.774 1208.87 174.606C1207.47 179.277 1206.06 183.931 1204.66 188.602Z" fill="white"/>
<path d="M1032.97 146.641C1032.1 150.169 1030.92 153.6 1029.98 157.109L1027.42 156.423C1029.96 146.066 1032.2 135.613 1034.53 125.2L1037.48 125.989C1036.93 128.165 1036.38 130.323 1035.82 132.496C1034.62 137.159 1034.12 141.98 1032.97 146.641Z" fill="white"/>
<path d="M1123.03 182.043L1120.64 181.4C1122.26 174.359 1124.28 167.437 1126.21 160.462C1127.12 157.146 1127.99 153.818 1128.84 150.487L1131.65 151.238C1129.28 159.102 1127.05 167.018 1124.78 174.911C1124.11 177.285 1123.54 179.655 1123.03 182.057L1123.03 182.043Z" fill="white"/>
<path d="M1065.56 145.294C1064.11 150.217 1062.57 155.13 1061.25 160.084C1060.8 161.759 1060.41 163.468 1060.06 165.168L1056.35 164.175C1056.72 162.478 1057.09 160.766 1057.54 159.09C1058.87 154.136 1060.41 149.223 1061.85 144.3C1062.91 140.668 1064.34 137.12 1065.37 133.464L1069.09 134.46C1068.05 138.114 1066.63 141.65 1065.57 145.297L1065.56 145.294Z" fill="white"/>
<path d="M1047.67 152.313C1046.83 155.276 1046.2 158.28 1045.49 161.266L1042.24 160.394C1042.98 157.217 1043.64 154.019 1044.55 150.888C1045.83 146.479 1047.22 142.176 1048.06 137.649C1048.58 134.845 1049.42 132.129 1050.23 129.406L1053.71 130.338C1051.83 137.7 1049.75 145.006 1047.67 152.313Z" fill="white"/>
<path d="M1143.1 179.6C1142.53 182.048 1141.95 184.494 1141.35 186.95L1137.97 186.044C1139.98 178.129 1141.75 170.182 1143.37 162.165C1143.87 159.698 1144.35 157.225 1144.81 154.749L1148.2 155.655C1146.57 163.658 1144.94 171.657 1143.11 179.603L1143.1 179.6Z" fill="white"/>
<path d="M998.289 141.512C997.778 143.743 997.325 145.99 996.872 148.237L992.991 147.198C993.444 144.95 993.897 142.703 994.408 140.472C995.616 135.222 997.284 130.065 998.735 124.881C999.54 122.016 1000.37 119.143 1001.2 116.269L1005.04 117.297C1002.66 125.329 1000.17 133.363 998.289 141.512Z" fill="white"/>
<path d="M878.866 116.617L876.201 115.903C876.236 115.773 876.271 115.643 876.309 115.499C877.869 110.282 879.382 105.052 880.999 99.8505C882.5 94.9893 883.187 89.9252 884.622 85.031L887.345 85.7604C885.979 90.6733 885.246 95.725 883.756 100.589C882.131 105.913 880.406 111.24 878.854 116.614L878.866 116.617Z" fill="white"/>
<path d="M825.094 69.9323C823.816 75.8596 822.554 81.822 820.82 87.6427C819.899 90.7553 819.345 93.7959 818.729 96.9747C818.516 98.0942 818.199 99.1857 817.847 100.268L814.893 99.4763C815.907 94.9026 816.675 90.2782 817.948 85.7584C818.78 82.8387 819.728 79.9501 820.115 76.9269C820.503 73.9502 821.478 71.1926 821.99 68.2645L825.233 69.1337C825.175 69.3968 825.113 69.6743 825.055 69.9374L825.094 69.9323Z" fill="white"/>
<path d="M832.418 96.2144C831.883 98.7184 831.221 101.188 830.544 103.67L828.331 103.077C829.063 100.625 829.775 98.1535 830.355 95.6619C831.463 90.8808 832.427 86.1235 833.77 81.3901C834.648 78.2971 835.411 75.1731 836.162 72.0459L838.85 72.7661C837.894 75.6372 836.842 78.4979 835.979 81.3938C834.497 86.3221 833.479 91.1888 832.418 96.2144Z" fill="white"/>
<path d="M906.031 91.5108C904.734 96.3494 904.191 101.297 902.636 106.082C901.108 110.812 899.363 115.469 898.553 120.391C898.476 120.866 898.348 121.343 898.27 121.817L894.355 120.768C894.444 120.296 894.56 119.817 894.637 119.342C895.459 114.423 897.203 109.766 898.732 105.036C900.225 100.436 900.815 95.6861 901.991 91.0166C902.1 90.6122 902.212 90.1933 902.32 89.7889L906.213 90.8319C906.151 91.063 906.089 91.2941 906.027 91.5252L906.031 91.5108Z" fill="white"/>
<path d="M913.507 115.837C912.833 119.047 912.202 122.191 911.386 125.331L907.783 124.366C908.599 121.225 909.242 118.085 909.904 114.872C910.915 110.034 912.694 105.34 914.126 100.6C914.849 98.2237 915.372 95.8094 915.879 93.4065L919.459 94.3657C918.952 96.7686 918.429 99.1829 917.717 101.562C916.289 106.288 914.522 110.985 913.496 115.834L913.507 115.837Z" fill="white"/>
<path d="M978.66 136.035C978.048 138.317 977.441 140.585 976.829 142.867L972.855 141.802C974.802 134.537 976.749 127.272 978.707 120.01C979.516 116.991 980.182 113.903 980.987 110.852L984.914 111.904C984.125 114.944 983.459 118.032 982.658 121.068C981.322 126.051 979.983 131.049 978.648 136.032L978.66 136.035Z" fill="white"/>
<path d="M961.123 134.107C960.624 135.506 960.121 136.873 959.614 138.254L957.089 137.578C957.514 136.36 957.928 135.14 958.369 133.911C960.048 129.221 959.95 124.118 961.139 119.312C962.192 115.012 963.411 110.741 964.66 106.493L967.707 107.31C966.434 111.551 964.961 115.754 963.896 120.051C962.754 124.683 962.751 129.605 961.123 134.107Z" fill="white"/>
<path d="M950.277 105.627C948.977 110.387 948.538 115.316 947.276 120.071C946.622 122.512 945.771 124.9 945.128 127.345C944.556 129.482 944.516 131.716 944.132 133.889C944.113 133.961 944.097 134.019 944.078 134.091L940.487 133.129C941.621 128.479 942.732 123.823 943.974 119.186C945.251 114.42 945.675 109.502 947.08 104.77C947.354 103.837 947.648 102.925 947.923 101.993L951.097 102.843C950.823 103.776 950.54 104.691 950.277 105.627Z" fill="white"/>
<path d="M929.444 118.684C928.701 122.293 927.915 125.921 927.106 129.544L923.468 128.569C925.454 120.602 927.424 112.647 929.093 104.61C929.589 102.204 930.192 99.8118 930.835 97.4141L934.53 98.4044C932.611 105.104 930.85 111.862 929.433 118.681L929.444 118.684Z" fill="white"/>
<path d="M865.171 108.087C864.934 109.618 864.609 111.156 864.222 112.694L860.851 111.79C862.495 105.838 863.835 99.772 865.387 93.7943C866.514 89.4518 867.787 85.1642 869.04 80.8559L872.018 81.6537C869.356 90.3837 866.566 99.0795 865.159 108.084L865.171 108.087Z" fill="white"/>
<path d="M850.057 93.5878C848.641 98.317 848.09 103.247 846.658 107.988L843.496 107.14C844.893 102.39 845.409 97.4509 846.79 92.7124C848.156 88.0317 849.518 83.3654 850.884 78.6847C851.132 77.8532 851.322 77.0061 851.511 76.1591L854.918 77.0717C854.716 77.9157 854.515 78.7596 854.267 79.5911C852.867 84.2625 851.458 88.9164 850.057 93.5878Z" fill="white"/>
<path d="M807.909 65.1574C806.714 67.4844 806.075 69.9141 805.63 72.4574C804.719 77.6162 803.461 82.5891 802.003 87.6164C801.244 90.2152 800.463 92.8078 799.693 95.4035L795.487 94.2767C797.685 86.862 800.088 79.5177 801.424 71.8878C801.854 69.4487 802.392 67.0231 803.479 64.7754C803.684 64.3349 803.935 63.9069 804.183 63.4932L808.214 64.5735C808.11 64.7778 808.032 64.9738 807.928 65.178L807.909 65.1574Z" fill="white"/>
<path d="M730.678 46.429C727.772 55.7904 724.858 65.1806 722.061 74.6018L718.608 73.6768C721.75 63.4808 724.873 53.2642 727.968 43.0558L731.455 43.9902C731.2 44.8042 730.933 45.6151 730.678 46.429Z" fill="white"/>
<path d="M658.804 53.8135C658.506 55.0186 658.328 56.2402 658.169 57.4825L654.079 56.3867C654.284 55.3426 654.493 54.284 654.733 53.2492C656.913 43.91 659.552 34.663 662.118 25.4119L666.126 26.4859C665.31 29.5336 664.489 32.5957 663.673 35.6433C662.051 41.6952 660.298 47.7274 658.804 53.8135Z" fill="white"/>
<path d="M737.852 78.8331L735.349 78.1626C736.854 73.4263 738.24 68.6733 738.918 63.7775C739.601 58.7743 741.168 54.039 742.657 49.2211C742.866 48.5341 743.029 47.8345 743.215 47.1412L745.914 47.8645C745.728 48.5578 745.566 49.2573 745.357 49.9444C742.416 59.4822 740.669 69.2468 737.856 78.8187L737.852 78.8331Z" fill="white"/>
<path d="M753.468 83.0177L750.85 82.3161C753.284 73.3239 755.405 64.2943 758.075 55.3496C758.462 54.0446 758.861 52.7426 759.248 51.4375L761.843 52.1329C758.956 62.3971 756.25 72.7255 753.468 83.0177Z" fill="white"/>
<path d="M678.375 51.6268C677.504 55.1552 676.324 58.5854 675.384 62.0953L672.823 61.4092C675.363 51.0519 677.605 40.5993 679.936 30.1861L682.878 30.9746C682.321 33.1473 681.779 35.3088 681.222 37.4815C680.022 42.1448 679.525 46.9655 678.375 51.6268Z" fill="white"/>
<path d="M768.437 87.0283L766.038 86.3858C767.664 79.3442 769.68 72.4227 771.612 65.4475C772.525 62.1316 773.392 58.8033 774.247 55.472L777.051 56.2232C774.683 64.0876 772.45 72.0037 770.186 79.8961C769.513 82.27 768.94 84.6399 768.433 87.0428L768.437 87.0283Z" fill="white"/>
<path d="M710.958 50.279C709.515 55.2022 707.975 60.115 706.648 65.0692C706.199 66.7447 705.816 68.4532 705.459 70.1535L701.752 69.1602C702.12 67.463 702.492 65.7513 702.941 64.0758C704.268 59.1216 705.808 54.2088 707.251 49.2857C708.311 45.6531 709.746 42.1055 710.776 38.4492L714.495 39.4457C713.454 43.0989 712.034 46.6352 710.97 50.2821L710.958 50.279Z" fill="white"/>
<path d="M693.072 57.2985C692.229 60.2615 691.598 63.266 690.897 66.2518L687.642 65.3795C688.381 62.2028 689.039 59.0044 689.953 55.8743C691.233 51.4649 692.622 47.1619 693.463 42.6345C693.978 39.8312 694.818 37.1148 695.634 34.3922L699.11 35.3235C697.236 42.6858 695.154 49.9922 693.072 57.2985Z" fill="white"/>
<path d="M788.498 84.5859C787.929 87.0342 787.348 89.4794 786.752 91.9359L783.369 91.0295C785.378 83.1152 787.148 75.1678 788.774 67.1511C789.274 64.6842 789.75 62.2111 790.215 59.7349L793.598 60.6413C791.975 68.6436 790.341 76.6427 788.51 84.589L788.498 84.5859Z" fill="white"/>
<path d="M643.691 46.4974C643.18 48.729 642.727 50.9761 642.274 53.2233L638.393 52.1834C638.846 49.9362 639.299 47.6891 639.81 45.4575C641.018 40.208 642.685 35.0508 644.136 29.8666C644.941 27.0016 645.773 24.1283 646.605 21.2551L650.44 22.2826C648.064 30.3152 645.576 38.3488 643.691 46.4974Z" fill="white"/>
<path d="M624.062 41.0208C623.451 43.3029 622.843 45.5706 622.232 47.8527L618.258 46.7879C620.205 39.5227 622.151 32.2575 624.11 24.9954C624.918 21.9767 625.584 18.8887 626.39 15.8379L630.317 16.8903C629.527 19.9297 628.873 23.0208 628.06 26.0539C626.725 31.037 625.386 36.0346 624.051 41.0177L624.062 41.0208Z" fill="white"/>
<path d="M606.513 39.0897C606.014 40.4886 605.511 41.8555 605.004 43.2368L602.478 42.5601C602.904 41.3428 603.318 40.1223 603.759 38.8937C605.438 34.2039 605.34 29.1 606.528 24.2943C607.581 19.9941 608.8 15.723 610.05 11.4756L613.097 12.292C611.824 16.5332 610.35 20.7361 609.286 25.0331C608.144 29.6655 608.141 34.5877 606.513 39.0897Z" fill="white"/>
<path d="M595.668 10.6092C594.367 15.3695 593.928 20.2985 592.667 25.0536C592.013 27.4946 591.162 29.8828 590.519 32.3269C589.946 34.4646 589.906 36.6986 589.523 38.8715C589.504 38.9438 589.488 39.0015 589.469 39.0738L585.877 38.1114C587.011 33.4615 588.123 28.8054 589.365 24.1689C590.642 19.4025 591.066 14.4847 592.47 9.75246C592.745 8.81982 593.039 7.90784 593.314 6.9752L596.488 7.82576C596.213 8.7584 595.931 9.67349 595.668 10.6092Z" fill="white"/>
<path d="M574.847 23.6695C574.103 27.2785 573.317 30.9071 572.508 34.5295L568.87 33.5548C570.856 25.5879 572.826 17.6324 574.495 9.59616C574.991 7.19014 575.595 4.79761 576.237 2.39994L579.933 3.3902C578.014 10.0899 576.253 16.8476 574.835 23.6664L574.847 23.6695Z" fill="white"/>
</g>
<defs>
<clipPath id="clip0_541_1186">
<rect width="915.931" height="32" fill="white" transform="translate(-10.2383 243.3) rotate(-15)"/>
</clipPath>
<clipPath id="clip1_541_1186">
<rect width="912.969" height="32" fill="white" transform="matrix(0.965926 0.258819 0.258819 -0.965926 559 30.9097)"/>
</clipPath>
</defs>
</svg>
