<svg preserveAspectRatio="none" width="100%" height="100%" overflow="visible" style="display: block;" viewBox="0 0 58 47" fill="none" xmlns="http://www.w3.org/2000/svg">
<g id="Vector" filter="url(#filter0_f_0_6)">
<path d="M44.1927 40.2415C53.3375 36.3112 54.8463 27.7614 53.6404 24.7653C52.4344 21.7692 47.5934 23.3356 46.4218 19.7414C45.2501 16.1472 50.0854 14.5808 49.2966 11.4479C48.5079 8.32082 42.2438 2.28301 32.5275 4.4646C22.8112 6.64618 17.0615 11.3625 12.3234 19.2857C10.3744 22.5495 7.72243 25.8191 5.27622 28.5361C2.72141 31.3784 4.20171 35.9182 7.94534 36.7213C11.5289 37.4903 15.604 38.5839 19.1019 40.082C27.6065 43.716 35.0423 44.166 44.187 40.2358L44.1927 40.2415Z" fill="var(--fill-0, #F3BCCA)"/>
</g>
<defs>
<filter id="filter0_f_0_6" x="-1.59414e-08" y="-1.14909e-08" width="58" height="47" filterUnits="userSpaceOnUse" color-interpolation-filters="sRGB">
<feFlood flood-opacity="0" result="BackgroundImageFix"/>
<feBlend mode="normal" in="SourceGraphic" in2="BackgroundImageFix" result="shape"/>
<feGaussianBlur stdDeviation="2" result="effect1_foregroundBlur_0_6"/>
</filter>
</defs>
</svg>
