<svg width="49" height="56" viewBox="0 0 49 56" fill="none" xmlns="http://www.w3.org/2000/svg">
<g filter="url(#filter0_f_588_4335)">
<path d="M37.5976 10.4137C31.4344 2.59778 22.7854 3.35316 20.2035 5.29348C17.6216 7.2338 20.3876 11.5044 17.2191 13.5664C14.0506 15.6284 11.2861 11.3633 8.46419 12.936C5.64775 14.5072 1.43696 22.1206 6.05896 30.9412C10.681 39.7617 16.7247 44.0949 25.6043 46.6209C29.2613 47.6587 33.1058 49.3741 36.3634 51.0337C39.7701 52.7658 43.772 50.161 43.5789 46.3371C43.3941 42.6766 43.3958 38.4572 43.9375 34.6908C45.2466 25.5355 43.7567 18.2366 37.5935 10.4207L37.5976 10.4137Z" fill="#F3BCCA"/>
</g>
<defs>
<filter id="filter0_f_588_4335" x="0" y="0" width="48.3752" height="55.5805" filterUnits="userSpaceOnUse" color-interpolation-filters="sRGB">
<feFlood flood-opacity="0" result="BackgroundImageFix"/>
<feBlend mode="normal" in="SourceGraphic" in2="BackgroundImageFix" result="shape"/>
<feGaussianBlur stdDeviation="2" result="effect1_foregroundBlur_588_4335"/>
</filter>
</defs>
</svg>
