<svg width="64" height="64" viewBox="0 0 64 64" fill="none" xmlns="http://www.w3.org/2000/svg">
<path d="M54 16C54 9.38 49.52 4 44 4C38.48 4 34 9.38 34 16C34 21.8 37.44 26.64 42 27.76V32.34C40.8297 32.7538 39.8165 33.5203 39.1001 34.534C38.3837 35.5477 37.9993 36.7587 38 38V54C38 55.5913 38.6321 57.1174 39.7574 58.2426C40.8826 59.3679 42.4087 60 44 60C45.5913 60 47.1174 59.3679 48.2426 58.2426C49.3679 57.1174 50 55.5913 50 54V38C50.0007 36.7587 49.6163 35.5477 48.8999 34.534C48.1835 33.5203 47.1703 32.7538 46 32.34V27.76C50.56 26.64 54 21.8 54 16ZM38 16C38 11.58 40.7 8 44 8C47.3 8 50 11.58 50 16C50 20.42 47.3 24 44 24C40.7 24 38 20.42 38 16ZM46 54C46 54.5304 45.7893 55.0391 45.4142 55.4142C45.0391 55.7893 44.5304 56 44 56C43.4696 56 42.9609 55.7893 42.5858 55.4142C42.2107 55.0391 42 54.5304 42 54V38C42 37.4696 42.2107 36.9609 42.5858 36.5858C42.9609 36.2107 43.4696 36 44 36C44.5304 36 45.0391 36.2107 45.4142 36.5858C45.7893 36.9609 46 37.4696 46 38V54ZM28 4C27.4696 4 26.9609 4.21071 26.5858 4.58579C26.2107 4.96086 26 5.46957 26 6V16H22V6C22 5.46957 21.7893 4.96086 21.4142 4.58579C21.0391 4.21071 20.5304 4 20 4C19.4696 4 18.9609 4.21071 18.5858 4.58579C18.2107 4.96086 18 5.46957 18 6V16H14V6C14 5.46957 13.7893 4.96086 13.4142 4.58579C13.0391 4.21071 12.5304 4 12 4C11.4696 4 10.9609 4.21071 10.5858 4.58579C10.2107 4.96086 10 5.46957 10 6V22C10 23.5913 10.6321 25.1174 11.7574 26.2426C12.8826 27.3679 14.4087 28 16 28H18V32.34C16.8297 32.7538 15.8165 33.5203 15.1001 34.534C14.3837 35.5477 13.9993 36.7587 14 38V54C14 55.5913 14.6321 57.1174 15.7574 58.2426C16.8826 59.3679 18.4087 60 20 60C21.5913 60 23.1174 59.3679 24.2426 58.2426C25.3679 57.1174 26 55.5913 26 54V38C26.0007 36.7587 25.6163 35.5477 24.8999 34.534C24.1835 33.5203 23.1703 32.7538 22 32.34V28H24C25.5913 28 27.1174 27.3679 28.2426 26.2426C29.3679 25.1174 30 23.5913 30 22V6C30 5.46957 29.7893 4.96086 29.4142 4.58579C29.0391 4.21071 28.5304 4 28 4ZM22 54C22 54.5304 21.7893 55.0391 21.4142 55.4142C21.0391 55.7893 20.5304 56 20 56C19.4696 56 18.9609 55.7893 18.5858 55.4142C18.2107 55.0391 18 54.5304 18 54V38C18 37.4696 18.2107 36.9609 18.5858 36.5858C18.9609 36.2107 19.4696 36 20 36C20.5304 36 21.0391 36.2107 21.4142 36.5858C21.7893 36.9609 22 37.4696 22 38V54ZM26 22C26 22.5304 25.7893 23.0391 25.4142 23.4142C25.0391 23.7893 24.5304 24 24 24H16C15.4696 24 14.9609 23.7893 14.5858 23.4142C14.2107 23.0391 14 22.5304 14 22V20H26V22Z" fill="#875408"/>
</svg>
