<svg width="64" height="64" viewBox="0 0 64 64" fill="none" xmlns="http://www.w3.org/2000/svg">
<path fill-rule="evenodd" clip-rule="evenodd" d="M31.9999 58.6667C38.0666 58.6667 43.6986 55.5253 46.8852 50.368C50.0746 45.208 50.3652 38.768 47.6532 33.3413C41.2612 20.56 34.3839 6.80799 34.3839 6.80799C33.9332 5.90399 33.0106 5.33333 31.9999 5.33333C30.9892 5.33333 30.0666 5.90399 29.6159 6.80799C29.6159 6.80799 22.7386 20.56 16.3466 33.3413C13.6346 38.768 13.9252 45.208 17.1146 50.368C20.3012 55.5253 25.9332 58.6667 31.9999 58.6667ZM31.9999 13.9627L21.1172 35.728C19.2319 39.4987 19.4346 43.976 21.6506 47.5627C23.8666 51.1493 27.7812 53.3333 31.9999 53.3333C36.2186 53.3333 40.1332 51.1493 42.3492 47.5627C44.5652 43.976 44.7679 39.4987 42.8825 35.728L31.9999 13.9627ZM31.9999 48C34.6372 48 37.0879 46.6347 38.4746 44.3893C39.8612 42.1467 39.9866 39.344 38.8079 36.9867C38.1492 35.6693 36.5466 35.136 35.2292 35.792C33.9146 36.4507 33.3786 38.0533 34.0372 39.3707C34.3892 40.0773 34.3519 40.9147 33.9386 41.5867C33.5226 42.2587 32.7892 42.6667 31.9999 42.6667C30.5279 42.6667 29.3332 43.8613 29.3332 45.3333C29.3332 46.8053 30.5279 48 31.9999 48Z" fill="#0B2E54"/>
</svg>
